<svg width="361" height="50" viewBox="0 0 361 50" fill="none" xmlns="http://www.w3.org/2000/svg">
<rect width="361" height="50" rx="12" fill="#100F0F"/>
<path d="M126.9 16.86H135.16V18.62H129.1V20.3H134.82V22.02H129.1V23.78C132.14 23.76 134.04 23.68 136.22 23.3L136.44 25.04C134.04 25.46 131.92 25.54 128.34 25.54H126.9V16.86ZM128.7 27.08H140.12V33.4H128.7V27.08ZM137.98 28.82H130.86V31.66H137.98V28.82ZM137.92 15.82H140.12V20.06H142.58V21.88H140.12V26.24H137.92V15.82ZM156.22 15.82H158.42V26.56H156.22V22.88H153.72V21.1H156.22V15.82ZM146.68 27.38H158.42V33.4H146.68V27.38ZM156.28 29.14H148.84V31.66H156.28V29.14ZM143.68 17.48H147.76V15.64H149.94V17.48H154.04V19.22H143.68V17.48ZM148.86 19.92C151.32 19.92 153.06 21.24 153.06 23.12C153.06 25 151.32 26.3 148.86 26.3C146.42 26.3 144.64 25 144.64 23.12C144.64 21.24 146.42 19.92 148.86 19.92ZM148.86 21.56C147.62 21.56 146.76 22.14 146.76 23.12C146.76 24.08 147.62 24.68 148.86 24.68C150.1 24.68 150.96 24.08 150.96 23.12C150.96 22.14 150.1 21.56 148.86 21.56ZM170.19 17.26H172.41V20.06C172.41 23.34 174.09 26.62 176.95 27.88L175.67 29.66C173.61 28.7 172.13 26.8 171.33 24.48C170.53 26.98 169.01 29.02 166.87 30.04L165.55 28.22C168.47 26.92 170.19 23.5 170.19 20.06V17.26ZM178.21 15.78H180.41V33.64H178.21V15.78ZM183.651 16.94H193.231V18.7H189.571V18.88C189.571 21.08 190.971 23.24 193.751 24.16L192.631 25.88C190.671 25.22 189.271 23.88 188.491 22.22C187.711 24.04 186.271 25.5 184.191 26.2L183.031 24.48C185.891 23.54 187.371 21.22 187.371 18.88V18.7H183.651V16.94ZM194.951 15.82H197.151V20.26H199.631V22.08H197.151V26.52H194.951V15.82ZM185.411 27.38H197.151V33.62H194.951V29.14H185.411V27.38ZM212.371 15.82H214.571V22.9H217.271V24.72H214.571V33.62H212.371V15.82ZM200.611 18.52H204.751V16.08H206.971V18.52H211.051V20.28H200.611V18.52ZM205.871 21.48C208.451 21.48 210.331 23.2 210.331 25.66C210.331 28.12 208.451 29.84 205.871 29.84C203.331 29.84 201.431 28.12 201.431 25.66C201.431 23.2 203.331 21.48 205.871 21.48ZM205.871 23.26C204.511 23.26 203.551 24.2 203.551 25.66C203.551 27.12 204.511 28.04 205.871 28.04C207.231 28.04 208.211 27.12 208.211 25.66C208.211 24.2 207.231 23.26 205.871 23.26ZM230.712 15.8H232.912V33.6H230.712V15.8ZM227.652 17.66C227.652 23 225.632 27.48 219.432 30.48L218.292 28.74C222.912 26.52 225.012 23.5 225.392 19.44H219.172V17.66H227.652Z" fill="white"/>
</svg>
