<svg width="108" height="24" viewBox="0 0 108 24" fill="none" xmlns="http://www.w3.org/2000/svg">
<path d="M11.5098 4.65918C11.6229 4.13249 12.3742 4.13248 12.4873 4.65918L13.4951 9.35254C13.6191 9.92946 14.0705 10.38 14.6475 10.5039L19.3408 11.5117C19.8673 11.6249 19.8673 12.376 19.3408 12.4893L14.6475 13.4971C14.0705 13.621 13.619 14.0724 13.4951 14.6494L12.4873 19.3428C12.3741 19.8692 11.6229 19.8693 11.5098 19.3428L10.502 14.6494C10.3781 14.0725 9.9275 13.621 9.35059 13.4971L4.65723 12.4893C4.13053 12.3762 4.13052 11.6248 4.65723 11.5117L9.35059 10.5039C9.92739 10.3799 10.378 9.92934 10.502 9.35254L11.5098 4.65918Z" fill="#FF4093" stroke="#FF4093"/>
<path d="M39.021 4.55372C39.2472 3.50032 40.7502 3.50032 40.9764 4.55372L41.9843 9.2473C42.0669 9.63197 42.3674 9.93246 42.7521 10.0151L47.4457 11.023C48.499 11.2492 48.499 12.7522 47.4456 12.9784L42.7521 13.9863C42.3674 14.0689 42.0669 14.3694 41.9843 14.754L40.9764 19.4476C40.7502 20.501 39.2472 20.501 39.021 19.4476L38.0131 14.754C37.9305 14.3693 37.63 14.0689 37.2453 13.9863L32.5518 12.9784C31.4984 12.7522 31.4984 11.2492 32.5518 11.0229L37.2453 10.0151C37.63 9.93246 37.9305 9.63197 38.0131 9.2473L39.021 4.55372Z" fill="#EEEDED"/>
<path d="M67.021 4.55372C67.2472 3.50032 68.7502 3.50032 68.9764 4.55372L69.9843 9.2473C70.0669 9.63197 70.3674 9.93246 70.7521 10.0151L75.4457 11.023C76.499 11.2492 76.499 12.7522 75.4456 12.9784L70.7521 13.9863C70.3674 14.0689 70.0669 14.3694 69.9843 14.754L68.9764 19.4476C68.7502 20.501 67.2472 20.501 67.021 19.4476L66.0131 14.754C65.9305 14.3693 65.63 14.0689 65.2453 13.9863L60.5518 12.9784C59.4984 12.7522 59.4984 11.2492 60.5518 11.0229L65.2453 10.0151C65.63 9.93246 65.9305 9.63197 66.0131 9.2473L67.021 4.55372Z" fill="#EEEDED"/>
<path d="M95.021 4.55372C95.2472 3.50032 96.7502 3.50032 96.9764 4.55372L97.9843 9.2473C98.0669 9.63197 98.3674 9.93246 98.7521 10.0151L103.446 11.023C104.499 11.2492 104.499 12.7522 103.446 12.9784L98.7521 13.9863C98.3674 14.0689 98.0669 14.3694 97.9843 14.754L96.9764 19.4476C96.7502 20.501 95.2472 20.501 95.021 19.4476L94.0131 14.754C93.9305 14.3693 93.63 14.0689 93.2453 13.9863L88.5518 12.9784C87.4984 12.7522 87.4984 11.2492 88.5518 11.0229L93.2453 10.0151C93.63 9.93246 93.9305 9.63197 94.0131 9.2473L95.021 4.55372Z" fill="#EEEDED"/>
</svg>
