<svg width="108" height="24" viewBox="0 0 108 24" fill="none" xmlns="http://www.w3.org/2000/svg">
<path d="M11.021 4.55372C11.2472 3.50032 12.7502 3.50032 12.9764 4.55372L13.9843 9.2473C14.0669 9.63197 14.3674 9.93246 14.7521 10.0151L19.4457 11.023C20.499 11.2492 20.499 12.7522 19.4456 12.9784L14.7521 13.9863C14.3674 14.0689 14.0669 14.3694 13.9843 14.754L12.9764 19.4476C12.7502 20.501 11.2472 20.501 11.021 19.4476L10.0131 14.754C9.93051 14.3693 9.63002 14.0689 9.24535 13.9863L4.55177 12.9784C3.49837 12.7522 3.49837 11.2492 4.55177 11.0229L9.24535 10.0151C9.63002 9.93246 9.93051 9.63197 10.0131 9.2473L11.021 4.55372Z" fill="#EEEDED"/>
<path d="M39.021 4.55372C39.2472 3.50032 40.7502 3.50032 40.9764 4.55372L41.9843 9.2473C42.0669 9.63197 42.3674 9.93246 42.7521 10.0151L47.4457 11.023C48.499 11.2492 48.499 12.7522 47.4456 12.9784L42.7521 13.9863C42.3674 14.0689 42.0669 14.3694 41.9843 14.754L40.9764 19.4476C40.7502 20.501 39.2472 20.501 39.021 19.4476L38.0131 14.754C37.9305 14.3693 37.63 14.0689 37.2453 13.9863L32.5518 12.9784C31.4984 12.7522 31.4984 11.2492 32.5518 11.0229L37.2453 10.0151C37.63 9.93246 37.9305 9.63197 38.0131 9.2473L39.021 4.55372Z" fill="#EEEDED"/>
<path d="M67.021 4.55372C67.2472 3.50032 68.7502 3.50032 68.9764 4.55372L69.9843 9.2473C70.0669 9.63197 70.3674 9.93246 70.7521 10.0151L75.4457 11.023C76.499 11.2492 76.499 12.7522 75.4456 12.9784L70.7521 13.9863C70.3674 14.0689 70.0669 14.3694 69.9843 14.754L68.9764 19.4476C68.7502 20.501 67.2472 20.501 67.021 19.4476L66.0131 14.754C65.9305 14.3693 65.63 14.0689 65.2453 13.9863L60.5518 12.9784C59.4984 12.7522 59.4984 11.2492 60.5518 11.0229L65.2453 10.0151C65.63 9.93246 65.9305 9.63197 66.0131 9.2473L67.021 4.55372Z" fill="#EEEDED"/>
<path d="M95.5098 4.65918C95.6229 4.13249 96.3742 4.13248 96.4873 4.65918L97.4951 9.35254C97.6191 9.92946 98.0705 10.38 98.6475 10.5039L103.341 11.5117C103.867 11.6249 103.867 12.376 103.341 12.4893L98.6475 13.4971C98.0705 13.621 97.619 14.0724 97.4951 14.6494L96.4873 19.3428C96.3741 19.8692 95.6229 19.8693 95.5098 19.3428L94.502 14.6494C94.3781 14.0725 93.9275 13.621 93.3506 13.4971L88.6572 12.4893C88.1305 12.3762 88.1305 11.6248 88.6572 11.5117L93.3506 10.5039C93.9274 10.3799 94.378 9.92934 94.502 9.35254L95.5098 4.65918Z" fill="#FF4093" stroke="#FF4093"/>
</svg>
