<svg width="108" height="24" viewBox="0 0 108 24" fill="none" xmlns="http://www.w3.org/2000/svg">
<path d="M11.021 4.55372C11.2472 3.50032 12.7502 3.50032 12.9764 4.55372L13.9843 9.2473C14.0669 9.63197 14.3674 9.93246 14.7521 10.0151L19.4457 11.023C20.499 11.2492 20.499 12.7522 19.4456 12.9784L14.7521 13.9863C14.3674 14.0689 14.0669 14.3694 13.9843 14.754L12.9764 19.4476C12.7502 20.501 11.2472 20.501 11.021 19.4476L10.0131 14.754C9.93051 14.3693 9.63002 14.0689 9.24535 13.9863L4.55177 12.9784C3.49837 12.7522 3.49837 11.2492 4.55177 11.0229L9.24535 10.0151C9.63002 9.93246 9.93051 9.63197 10.0131 9.2473L11.021 4.55372Z" fill="#EEEDED"/>
<path d="M39.5098 4.65918C39.6229 4.13249 40.3742 4.13248 40.4873 4.65918L41.4951 9.35254C41.6191 9.92946 42.0705 10.38 42.6475 10.5039L47.3408 11.5117C47.8673 11.6249 47.8673 12.376 47.3408 12.4893L42.6475 13.4971C42.0705 13.621 41.619 14.0724 41.4951 14.6494L40.4873 19.3428C40.3741 19.8692 39.6229 19.8693 39.5098 19.3428L38.502 14.6494C38.3781 14.0725 37.9275 13.621 37.3506 13.4971L32.6572 12.4893C32.1305 12.3762 32.1305 11.6248 32.6572 11.5117L37.3506 10.5039C37.9274 10.3799 38.378 9.92934 38.502 9.35254L39.5098 4.65918Z" fill="#FF4093" stroke="#FF4093"/>
<path d="M67.021 4.55372C67.2472 3.50032 68.7502 3.50032 68.9764 4.55372L69.9843 9.2473C70.0669 9.63197 70.3674 9.93246 70.7521 10.0151L75.4457 11.023C76.499 11.2492 76.499 12.7522 75.4456 12.9784L70.7521 13.9863C70.3674 14.0689 70.0669 14.3694 69.9843 14.754L68.9764 19.4476C68.7502 20.501 67.2472 20.501 67.021 19.4476L66.0131 14.754C65.9305 14.3693 65.63 14.0689 65.2453 13.9863L60.5518 12.9784C59.4984 12.7522 59.4984 11.2492 60.5518 11.0229L65.2453 10.0151C65.63 9.93246 65.9305 9.63197 66.0131 9.2473L67.021 4.55372Z" fill="#EEEDED"/>
<path d="M95.021 4.55372C95.2472 3.50032 96.7502 3.50032 96.9764 4.55372L97.9843 9.2473C98.0669 9.63197 98.3674 9.93246 98.7521 10.0151L103.446 11.023C104.499 11.2492 104.499 12.7522 103.446 12.9784L98.7521 13.9863C98.3674 14.0689 98.0669 14.3694 97.9843 14.754L96.9764 19.4476C96.7502 20.501 95.2472 20.501 95.021 19.4476L94.0131 14.754C93.9305 14.3693 93.63 14.0689 93.2453 13.9863L88.5518 12.9784C87.4984 12.7522 87.4984 11.2492 88.5518 11.0229L93.2453 10.0151C93.63 9.93246 93.9305 9.63197 94.0131 9.2473L95.021 4.55372Z" fill="#EEEDED"/>
</svg>
