<?xml version="1.0" encoding="UTF-8"?>
<svg id="Layer_1" data-name="Layer 1" xmlns="http://www.w3.org/2000/svg" viewBox="0 0 393 321">
  <defs>
    <style>
      .cls-1 {
        fill: #ff4093;
      }

      .cls-2 {
        fill: #f80078;
      }

      .cls-3 {
        fill: #fdbcd9;
      }

      .cls-4 {
        fill: #ff0079;
      }

      .cls-5 {
        fill: #ff80b3;
      }
    </style>
  </defs>
  <path class="cls-1" d="M367.04,322.96c-26.44-4.09-37.15-29.65-37.59-30.74l7.4-3.03c.09.22,9.52,22.48,31.41,25.86l-1.22,7.91Z"/>
  <path class="cls-5" d="M159.74,350.04l-2-7.75.17-.04c1.76-.41,7.06-1.94,11.67-6.05-.29-.04-.57-.08-.85-.13-5-.85-9-3.66-11.59-8.11-4.62-7.95-4.26-16.62.98-23.18,4.34-5.44,11.09-7.9,16.78-6.12,3.48,1.09,9.44,4.66,10.24,16.39.26,3.76.03,7.12-.56,10.14,9.87-4.34,20.2-12.03,24.73-15.89l5.19,6.09c-2.24,1.9-18.41,15.36-33.68,19.65-6.77,11.23-19.14,14.53-21.08,14.99ZM176.53,311.65c-.77-2.89-2.17-4.78-4.03-5.36-2.53-.79-5.88.64-8.15,3.48-1.49,1.86-4.49,6.97-.31,14.17,1.41,2.43,3.33,3.78,6.02,4.24,1.61.28,3.38.23,5.27-.07,1.4-3.36,2.15-7.48,1.81-12.52-.1-1.46-.31-2.78-.62-3.94Z"/>
  <path class="cls-1" d="M263.96,308.24c-14.02,10.26-26.62,1.36-31.33-4.78l6.35-4.87-3.17,2.43,3.16-2.45c.92,1.17,9.29,11.24,20.26,3.2l4.73,6.45Z"/>
  <path class="cls-5" d="M228.51,318.33c-.57-.67-4.97-6.07-5.64-12.78-7.63-3.58-14.04-9.88-15.19-11.03l5.69-5.62c2.43,2.46,6.64,5.95,10.92,8.36.98-1.99,2.43-3.8,4.32-5.37,4.64-3.85,9.53-5.12,13.41-3.48,2.73,1.16,4.5,3.61,4.73,6.57.31,4.03-2.28,8.16-6.95,11.05-2.56,1.59-5.33,2.13-8.16,1.96.9,2.33,2.26,4.32,2.97,5.17l-6.11,5.16ZM231.93,300c1.38.11,2.62-.12,3.66-.76,2.39-1.49,3.12-2.93,3.19-3.5-.55-.12-2.32.04-5.05,2.31-.74.62-1.34,1.26-1.79,1.95Z"/>
  <path class="cls-3" d="M311.79,294.21c-5.65,1.94-13.66,13.8-16.84,18.81l6.75,4.29c4.77-7.5,10.71-14.76,12.7-15.54l-2.61-7.56Z"/>
  <path class="cls-5" d="M384.14,174.43c-5.96-.44-16.73-9.85-21.09-13.88l5.43-5.87c6.53,6.04,14.13,11.54,16.25,11.77l-.59,7.98Z"/>
  <path class="cls-2" d="M391.34,295.33c-5.04-3.21-10.06-16.61-11.99-22.22l7.57-2.6c2.89,8.41,6.97,16.86,8.73,18.07l-4.3,6.74Z"/>
  <path class="cls-5" d="M313.22-14.63c-26.44,4.09-37.15,29.65-37.59,30.74l7.4,3.03c.09-.22,9.52-22.48,31.41-25.86l-1.22-7.91Z"/>
  <path class="cls-3" d="M336.84-13.6c4.11.93,7.34,4.82,8.86,10.65.62,2.37.74,4.68.37,6.87,4.89.54,10.34.16,13.75-.41l1.34,7.89c-1.6.27-10.49,1.65-18.77.09-4.46,5.06-11.19,6.87-12.04,7.08l-1.94-7.76c1-.25,3.3-1.07,5.41-2.46-2.38-1.51-4.32-3.57-5.47-6.35-2.1-5.07-1.79-9.94.81-13.03,1.52-1.8,3.64-2.78,5.89-2.78.59,0,1.18.07,1.78.2ZM337.96-.93c-.89-3.44-2.24-4.59-2.76-4.82-.28.49-.53,2.09.55,4.7.47,1.13,1.35,2.03,2.53,2.75.03-.82-.08-1.7-.32-2.63Z"/>
  <path class="cls-1" d="M197.99-4.02c-.71.85-2.08,2.84-2.97,5.17,2.82-.17,5.59.37,8.16,1.96,4.66,2.89,7.26,7.02,6.95,11.05-.23,2.96-2,5.42-4.73,6.57-3.88,1.64-8.77.37-13.41-3.48-1.88-1.56-3.33-3.37-4.32-5.37-4.29,2.41-8.49,5.91-10.92,8.36l-5.69-5.62c1.14-1.16,7.56-7.46,15.19-11.03.67-6.71,5.07-12.1,5.64-12.78l6.11,5.16ZM197.09,11.1c2.73,2.27,4.5,2.42,5.05,2.31-.06-.56-.79-2.01-3.19-3.5-1.04-.64-2.28-.87-3.66-.76.46.69,1.05,1.33,1.79,1.95Z"/>
  <path class="cls-5" d="M371.26,101.95c.17-.79,1.3-.79,1.48,0l.76,3.54c.06.29.29.52.58.58l3.54.76c.79.17.79,1.3,0,1.48l-3.54.76c-.29.06-.52.29-.58.58l-.76,3.54c-.17.79-1.3.79-1.48,0l-.76-3.54c-.06-.29-.29-.52-.58-.58l-3.54-.76c-.79-.17-.79-1.3,0-1.48l3.54-.76c.29-.06.52-.29.58-.58l.76-3.54Z"/>
  <path class="cls-5" d="M8.89,165.71c.17-.79,1.3-.79,1.48,0l.76,3.54c.06.29.29.52.58.58l3.54.76c.79.17.79,1.3,0,1.48l-3.54.76c-.29.06-.52.29-.58.58l-.76,3.54c-.17.79-1.3.79-1.48,0l-.76-3.54c-.06-.29-.29-.52-.58-.58l-3.54-.76c-.79-.17-.79-1.3,0-1.48l3.54-.76c.29-.06.52-.29.58-.58l.76-3.54Z"/>
  <path class="cls-5" d="M11.99,3.51c.17-.79,1.3-.79,1.48,0l.76,3.54c.06.29.29.52.58.58l3.54.76c.79.17.79,1.3,0,1.48l-3.54.76c-.29.06-.52.29-.58.58l-.76,3.54c-.17.79-1.3.79-1.48,0l-.76-3.54c-.06-.29-.29-.52-.58-.58l-3.54-.76c-.79-.17-.79-1.3,0-1.48l3.54-.76c.29-.06.52-.29.58-.58l.76-3.54Z"/>
  <path class="cls-3" d="M158.59,13.77c.17-.79,1.3-.79,1.48,0l.76,3.54c.06.29.29.52.58.58l3.54.76c.79.17.79,1.3,0,1.48l-3.54.76c-.29.06-.52.29-.58.58l-.76,3.54c-.17.79-1.3.79-1.48,0l-.76-3.54c-.06-.29-.29-.52-.58-.58l-3.54-.76c-.79-.17-.79-1.3,0-1.48l3.54-.76c.29-.06.52-.29.58-.58l.76-3.54Z"/>
  <path class="cls-5" d="M222.69,4.64c.17-.79,1.3-.79,1.48,0l.76,3.54c.06.29.29.52.58.58l3.54.76c.79.17.79,1.3,0,1.48l-3.54.76c-.29.06-.52.29-.58.58l-.76,3.54c-.17.79-1.3.79-1.48,0l-.76-3.54c-.06-.29-.29-.52-.58-.58l-3.54-.76c-.79-.17-.79-1.3,0-1.48l3.54-.76c.29-.06.52-.29.58-.58l.76-3.54Z"/>
  <path class="cls-5" d="M377.74,6.81c.17-.79,1.3-.79,1.48,0l.76,3.54c.06.29.29.52.58.58l3.54.76c.79.17.79,1.3,0,1.48l-3.54.76c-.29.06-.52.29-.58.58l-.76,3.54c-.17.79-1.3.79-1.48,0l-.76-3.54c-.06-.29-.29-.52-.58-.58l-3.54-.76c-.79-.17-.79-1.3,0-1.48l3.54-.76c.29-.06.52-.29.58-.58l.76-3.54Z"/>
  <path class="cls-5" d="M16.58,52.47c.17-.79,1.3-.79,1.48,0l.76,3.54c.06.29.29.52.58.58l3.54.76c.79.17.79,1.3,0,1.48l-3.54.76c-.29.06-.52.29-.58.58l-.76,3.54c-.17.79-1.3.79-1.48,0l-.76-3.54c-.06-.29-.29-.52-.58-.58l-3.54-.76c-.79-.17-.79-1.3,0-1.48l3.54-.76c.29-.06.52-.29.58-.58l.76-3.54Z"/>
  <path class="cls-5" d="M314.36,22.03c.17-.79,1.3-.79,1.48,0l.76,3.54c.06.29.29.52.58.58l3.54.76c.79.17.79,1.3,0,1.48l-3.54.76c-.29.06-.52.29-.58.58l-.76,3.54c-.17.79-1.3.79-1.48,0l-.76-3.54c-.06-.29-.29-.52-.58-.58l-3.54-.76c-.79-.17-.79-1.3,0-1.48l3.54-.76c.29-.06.52-.29.58-.58l.76-3.54Z"/>
  <path class="cls-3" d="M142.74,307.31c.17-.79,1.3-.79,1.48,0l.76,3.54c.06.29.29.52.58.58l3.54.76c.79.17.79,1.3,0,1.48l-3.54.76c-.29.06-.52.29-.58.58l-.76,3.54c-.17.79-1.3.79-1.48,0l-.76-3.54c-.06-.29-.29-.52-.58-.58l-3.54-.76c-.79-.17-.79-1.3,0-1.48l3.54-.76c.29-.06.52-.29.58-.58l.76-3.54Z"/>
  <path class="cls-4" d="M278.43,300.46c.17-.79,1.3-.79,1.48,0l.76,3.54c.06.29.29.52.58.58l3.54.76c.79.17.79,1.3,0,1.48l-3.54.76c-.29.06-.52.29-.58.58l-.76,3.54c-.17.79-1.3.79-1.48,0l-.76-3.54c-.06-.29-.29-.52-.58-.58l-3.54-.76c-.79-.17-.79-1.3,0-1.48l3.54-.76c.29-.06.52-.29.58-.58l.76-3.54Z"/>
  <path class="cls-3" d="M374.75,288.59c.17-.79,1.3-.79,1.48,0l.76,3.54c.06.29.29.52.58.58l3.54.76c.79.17.79,1.3,0,1.48l-3.54.76c-.29.06-.52.29-.58.58l-.76,3.54c-.17.79-1.3.79-1.48,0l-.76-3.54c-.06-.29-.29-.52-.58-.58l-3.54-.76c-.79-.17-.79-1.3,0-1.48l3.54-.76c.29-.06.52-.29.58-.58l.76-3.54Z"/>
  <path class="cls-1" d="M383.54,234.39c.17-.79,1.3-.79,1.48,0l.76,3.54c.06.29.29.52.58.58l3.54.76c.79.17.79,1.3,0,1.48l-3.54.76c-.29.06-.52.29-.58.58l-.76,3.54c-.17.79-1.3.79-1.48,0l-.76-3.54c-.06-.29-.29-.52-.58-.58l-3.54-.76c-.79-.17-.79-1.3,0-1.48l3.54-.76c.29-.06.52-.29.58-.58l.76-3.54Z"/>
  <path class="cls-1" d="M379.92,138.36c.17-.79,1.3-.79,1.48,0l.76,3.54c.06.29.29.52.58.58l3.54.76c.79.17.79,1.3,0,1.48l-3.54.76c-.29.06-.52.29-.58.58l-.76,3.54c-.17.79-1.3.79-1.48,0l-.76-3.54c-.06-.29-.29-.52-.58-.58l-3.54-.76c-.79-.17-.79-1.3,0-1.48l3.54-.76c.29-.06.52-.29.58-.58l.76-3.54Z"/>
  <path class="cls-5" d="M365.69,282.81l-4.99-6.25c20.9-16.7,46.97-7.29,48.07-6.88l-2.78,7.5c-.23-.08-22.99-8.2-40.3,5.63Z"/>
  <path class="cls-5" d="M267.09,33.47c-5.79-1.49-14.72-12.66-18.3-17.4l6.39-4.82c5.36,7.1,11.86,13.86,13.91,14.47l-2,7.75Z"/>
  <path class="cls-5" d="M65.55,12.81c-5.79-1.49-14.72-12.66-18.3-17.4l6.39-4.82c5.36,7.1,11.86,13.86,13.91,14.47l-2,7.75Z"/>
  <path class="cls-3" d="M230.04,32.03l-6.62-4.5c15.04-22.12,42.73-20.82,43.9-20.76l-.44,7.99c-.24-.01-24.39-1.05-36.84,17.27Z"/>
  <path class="cls-1" d="M-1.45,196.93c-3.72,1.11-6.28,1.47-6.62,1.52l-1.07-7.93.54,3.96-.54-3.96c.24-.03,24.15-3.59,32.9-23.94l7.35,3.16c-7.49,17.43-23.47,24.5-32.55,27.19Z"/>
  <circle class="cls-1" cx="194.74" cy="312.09" r="2.86"/>
  <circle class="cls-1" cx="7.05" cy="205.59" r="2.86"/>
  <circle class="cls-5" cx="386.87" cy="123.11" r="2.86"/>
  <circle class="cls-3" cx="4.86" cy="187.44" r="2.86"/>
  <circle class="cls-5" cx="6.77" cy="51.87" r="2.86"/>
  <circle class="cls-5" cx="31.19" cy="0" r="2.86"/>
  <circle class="cls-5" cx="146.42" cy="6.74" r="2.86"/>
  <circle class="cls-1" cx="302.9" cy="13.43" r="2.86"/>
  <circle class="cls-5" cx="264.5" cy="314.95" r="2.86"/>
  <circle class="cls-5" cx="361.91" cy="303.02" r="2.86"/>
  <circle class="cls-3" cx="323.82" cy="306.08" r="2.86"/>
  <circle class="cls-1" cx="363.05" cy="242.73" r="2.86"/>
  <path class="cls-3" d="M-15.11,266.68l-7.75-1.99c6.66-25.91,33.16-34.06,34.29-34.39l2.28,7.67-1.14-3.83,1.15,3.83c-.23.07-23.31,7.26-28.82,28.72Z"/>
  <path class="cls-1" d="M373.31,226.4c-1.26-2.65-10.08-21.76-10.28-37.61-9.09-9.45-9.09-22.24-9.03-24.24l8,.07v.17c-.06,1.81.04,7.32,2.83,12.84.11-.27.22-.53.34-.79,2.12-4.6,5.86-7.75,10.83-9.1,8.88-2.41,17.16.19,22.14,6.94,4.13,5.6,4.77,12.76,1.58,17.8-1.95,3.08-6.95,7.92-18.48,5.66-3.69-.72-6.88-1.81-9.65-3.16,1.64,10.65,6.39,22.62,8.95,28l-7.22,3.44ZM371.15,185.3c2.88,2.21,6.66,4.01,11.62,4.98,5.01.98,8.73.22,10.18-2.08,1.42-2.24.9-5.85-1.25-8.77-1.41-1.92-5.57-6.14-13.61-3.97-2.72.74-4.51,2.24-5.66,4.72-.68,1.48-1.09,3.21-1.29,5.12Z"/>
  <path class="cls-5" d="M7.06,223c.17-.79,1.3-.79,1.48,0l.76,3.54c.06.29.29.52.58.58l3.54.76c.79.17.79,1.3,0,1.48l-3.54.76c-.29.06-.52.29-.58.58l-.76,3.54c-.17.79-1.3.79-1.48,0l-.76-3.54c-.06-.29-.29-.52-.58-.58l-3.54-.76c-.79-.17-.79-1.3,0-1.48l3.54-.76c.29-.06.52-.29.58-.58l.76-3.54Z"/>
  <path class="cls-3" d="M85.5-4.87c-5.67-1.87-19.23,2.72-24.79,4.78l2.78,7.5c8.34-3.09,17.46-5.27,19.52-4.68l2.5-7.6Z"/>
</svg>