<?xml version="1.0" encoding="UTF-8"?>
<svg id="Layer_1" data-name="Layer 1" xmlns="http://www.w3.org/2000/svg" viewBox="0 0 393 70">
  <defs>
    <style>
      .cls-1 {
        fill: #ff4093;
      }

      .cls-2 {
        fill: #ffeef6;
      }

      .cls-3 {
        fill: #fdbcd9;
      }

      .cls-4 {
        fill: #ff80b3;
      }
    </style>
  </defs>
  <path class="cls-2" d="M241.88,16.87c-26.07,6.01-45.5-13.76-46.31-14.6l5.75-5.56c.17.17,17.18,17.35,38.76,12.37l1.8,7.8Z"/>
  <path class="cls-4" d="M319.28-15.77c-26.44,4.09-37.15,29.65-37.59,30.74l7.4,3.03c.09-.22,9.52-22.48,31.41-25.86l-1.22-7.91Z"/>
  <path class="cls-3" d="M320.09,1.82c4.09-1.04,8.73.96,12.73,5.47,1.62,1.83,2.78,3.84,3.45,5.96,4.6-1.74,9.29-4.55,12.06-6.61l4.78,6.42c-1.31.97-8.6,6.23-16.68,8.61-1.68,6.53-6.85,11.2-7.51,11.78l-5.25-6.03c.78-.68,2.45-2.45,3.71-4.65-2.81-.26-5.47-1.22-7.76-3.17-4.17-3.56-6.11-8.04-5.19-11.97.54-2.29,1.98-4.13,3.99-5.15.52-.27,1.09-.48,1.68-.63ZM326.84,12.6c-2.36-2.66-4.08-3.07-4.65-3.04-.02.57.48,2.11,2.62,3.94.93.79,2.13,1.2,3.51,1.3-.35-.75-.84-1.48-1.48-2.2Z"/>
  <path class="cls-3" d="M230.93,3.82c.17-.79,1.3-.79,1.48,0l.76,3.54c.06.29.29.52.58.58l3.54.76c.79.17.79,1.3,0,1.48l-3.54.76c-.29.06-.52.29-.58.58l-.76,3.54c-.17.79-1.3.79-1.48,0l-.76-3.54c-.06-.29-.29-.52-.58-.58l-3.54-.76c-.79-.17-.79-1.3,0-1.48l3.54-.76c.29-.06.52-.29.58-.58l.76-3.54Z"/>
  <path class="cls-4" d="M381.93,9.53c.17-.79,1.3-.79,1.48,0l.76,3.54c.06.29.29.52.58.58l3.54.76c.79.17.79,1.3,0,1.48l-3.54.76c-.29.06-.52.29-.58.58l-.76,3.54c-.17.79-1.3.79-1.48,0l-.76-3.54c-.06-.29-.29-.52-.58-.58l-3.54-.76c-.79-.17-.79-1.3,0-1.48l3.54-.76c.29-.06.52-.29.58-.58l.76-3.54Z"/>
  <path class="cls-4" d="M287.16,23.43c.17-.79,1.3-.79,1.48,0l.76,3.54c.06.29.29.52.58.58l3.54.76c.79.17.79,1.3,0,1.48l-3.54.76c-.29.06-.52.29-.58.58l-.76,3.54c-.17.79-1.3.79-1.48,0l-.76-3.54c-.06-.29-.29-.52-.58-.58l-3.54-.76c-.79-.17-.79-1.3,0-1.48l3.54-.76c.29-.06.52-.29.58-.58l.76-3.54Z"/>
  <path class="cls-4" d="M358.92,17.91l-4.99-6.25c20.9-16.7,46.97-7.29,48.07-6.88l-2.78,7.5c-.23-.08-22.99-8.2-40.3,5.63Z"/>
  <path class="cls-1" d="M274.14,23.4c-5.79-1.49-14.72-12.66-18.3-17.4l6.39-4.82c5.36,7.1,11.86,13.86,13.91,14.47l-2,7.75Z"/>
  <path class="cls-4" d="M241.03,30.14l-6.62-4.5c15.04-22.12,42.73-20.82,43.9-20.76l-.44,7.99c-.24-.01-24.39-1.05-36.84,17.27Z"/>
  <circle class="cls-1" cx="304.68" cy="12.29" r="2.86"/>
  <circle class="cls-4" cx="351.07" cy="20.54" r="2.86"/>
  <circle class="cls-4" cx="256.37" cy="22.83" r="2.86"/>
</svg>