<?xml version="1.0" encoding="UTF-8"?>
<svg id="Layer_1" data-name="Layer 1" xmlns="http://www.w3.org/2000/svg" viewBox="0 0 393 70">
  <defs>
    <style>
      .cls-1 {
        fill: #ff4093;
      }

      .cls-2 {
        fill: #f80078;
      }

      .cls-3 {
        fill: #ffeef6;
      }

      .cls-4 {
        fill: #fdbcd9;
      }

      .cls-5 {
        fill: #ff80b3;
      }
    </style>
  </defs>
  <path class="cls-1" d="M355.98,67.3c-26.44-4.09-37.15-29.65-37.59-30.74l7.4-3.03c.09.22,9.52,22.48,31.41,25.86l-1.22,7.91Z"/>
  <path class="cls-1" d="M260.28,57.74c-14.02,10.26-26.62,1.36-31.33-4.78l6.35-4.87-3.17,2.43,3.16-2.45c.92,1.17,9.29,11.24,20.26,3.2l4.73,6.45Z"/>
  <path class="cls-5" d="M224.83,67.83c-.57-.67-4.97-6.07-5.64-12.78-7.63-3.58-14.04-9.88-15.19-11.03l5.69-5.62c2.43,2.46,6.64,5.95,10.92,8.36.98-1.99,2.43-3.8,4.32-5.37,4.64-3.85,9.53-5.12,13.41-3.48,2.73,1.16,4.5,3.61,4.73,6.57.31,4.03-2.28,8.16-6.95,11.05-2.56,1.59-5.33,2.13-8.16,1.96.9,2.33,2.26,4.32,2.97,5.17l-6.11,5.16ZM228.25,49.5c1.38.11,2.62-.12,3.66-.76,2.39-1.49,3.12-2.93,3.19-3.5-.55-.12-2.32.04-5.05,2.31-.74.62-1.34,1.26-1.79,1.95Z"/>
  <path class="cls-4" d="M305.02,43.21c-5.65,1.94-13.66,13.8-16.84,18.81l6.75,4.29c4.77-7.5,10.71-14.76,12.7-15.54l-2.61-7.56Z"/>
  <path class="cls-3" d="M191.6,62.38c-3.64-4.73-17.43-8.55-23.19-9.97l-1.92,7.77c8.63,2.13,17.41,5.44,18.77,7.09l6.34-4.89Z"/>
  <path class="cls-2" d="M384.58,56.39c-5.04-3.21-10.06-16.61-11.99-22.22l7.57-2.6c2.89,8.41,6.97,16.86,8.73,18.07l-4.3,6.74Z"/>
  <path class="cls-4" d="M184.36,39.15c.17-.79,1.3-.79,1.48,0l.76,3.54c.06.29.29.52.58.58l3.54.76c.79.17.79,1.3,0,1.48l-3.54.76c-.29.06-.52.29-.58.58l-.76,3.54c-.17.79-1.3.79-1.48,0l-.76-3.54c-.06-.29-.29-.52-.58-.58l-3.54-.76c-.79-.17-.79-1.3,0-1.48l3.54-.76c.29-.06.52-.29.58-.58l.76-3.54Z"/>
  <path class="cls-4" d="M275.26,46.91c.17-.79,1.3-.79,1.48,0l.76,3.54c.06.29.29.52.58.58l3.54.76c.79.17.79,1.3,0,1.48l-3.54.76c-.29.06-.52.29-.58.58l-.76,3.54c-.17.79-1.3.79-1.48,0l-.76-3.54c-.06-.29-.29-.52-.58-.58l-3.54-.76c-.79-.17-.79-1.3,0-1.48l3.54-.76c.29-.06.52-.29.58-.58l.76-3.54Z"/>
  <path class="cls-4" d="M365.64,46.41c.17-.79,1.3-.79,1.48,0l.76,3.54c.06.29.29.52.58.58l3.54.76c.79.17.79,1.3,0,1.48l-3.54.76c-.29.06-.52.29-.58.58l-.76,3.54c-.17.79-1.3.79-1.48,0l-.76-3.54c-.06-.29-.29-.52-.58-.58l-3.54-.76c-.79-.17-.79-1.3,0-1.48l3.54-.76c.29-.06.52-.29.58-.58l.76-3.54Z"/>
  <path class="cls-4" d="M358.92,43.88l-4.99-6.25c20.9-16.7,46.97-7.29,48.07-6.88l-2.78,7.5c-.23-.08-22.99-8.2-40.3,5.63Z"/>
  <circle class="cls-1" cx="200.55" cy="52.52" r="2.86"/>
  <circle class="cls-5" cx="260.86" cy="46.38" r="2.86"/>
  <circle class="cls-5" cx="344.61" cy="43.52" r="2.86"/>
  <circle class="cls-3" cx="317.05" cy="55.08" r="2.86"/>
</svg>