<svg width="80" height="80" viewBox="0 0 80 80" fill="none" xmlns="http://www.w3.org/2000/svg">
<path d="M66.6 37.1111H63.8C63.0253 37.1111 62.4 36.4659 62.4 35.6667V31.3333H56.8V35.6667C56.8 36.4659 56.1653 37.1111 55.4 37.1111H49.8C49.0253 37.1111 48.4 36.4659 48.4 35.6667V19.7778H44.2C43.4253 19.7778 42.8 19.1326 42.8 18.3333V14H37.2V18.3333C37.2 19.1326 36.5653 19.7778 35.8 19.7778H31.6V24.1111C31.6 24.9104 30.9653 25.5556 30.2 25.5556H26V35.6667C26 36.4659 25.3653 37.1111 24.6 37.1111H12V42.8889H24.6C25.3653 42.8889 26 43.5341 26 44.3333V54.4444H30.2C30.9653 54.4444 31.6 55.0896 31.6 55.8889V60.2222H35.8C36.5653 60.2222 37.2 60.8674 37.2 61.6667V66H42.8V61.6667C42.8 60.8674 43.4253 60.2222 44.2 60.2222H48.4V44.3333C48.4 43.5341 49.0253 42.8889 49.8 42.8889H55.4C56.1653 42.8889 56.8 43.5341 56.8 44.3333V48.6667H62.4V44.3333C62.4 43.5341 63.0253 42.8889 63.8 42.8889H68V37.1111H66.6ZM41.4 60.2222H38.6C37.8253 60.2222 37.2 59.577 37.2 58.7778V54.4444H33C32.2253 54.4444 31.6 53.7993 31.6 53V44.3333C31.6 43.5341 32.2253 42.8889 33 42.8889H41.4C42.1653 42.8889 42.8 43.5341 42.8 44.3333V58.7778C42.8 59.577 42.1653 60.2222 41.4 60.2222ZM31.6 35.6667V27C31.6 26.2007 32.2253 25.5556 33 25.5556H37.2V21.2222C37.2 20.423 37.8253 19.7778 38.6 19.7778H41.4C42.1653 19.7778 42.8 20.423 42.8 21.2222V35.6667C42.8 36.4659 42.1653 37.1111 41.4 37.1111H33C32.2253 37.1111 31.6 36.4659 31.6 35.6667ZM26 41.4444V37.1111H31.6V42.8889H26V41.4444ZM61 42.8889H56.8V37.1111H62.4V42.8889H61Z" fill="#010101"/>
</svg>
