<svg width="80" height="80" viewBox="0 0 80 80" fill="none" xmlns="http://www.w3.org/2000/svg">
<path d="M24.1791 55.8201H25.6173C26.4131 55.8201 27.0555 56.4625 27.0555 57.2583V61.5728H31.3701C32.1659 61.5728 32.8083 62.2152 32.8083 63.011V67.3256H47.1902V63.011C47.1902 62.2152 47.8326 61.5728 48.6284 61.5728H52.943V57.2583C52.943 56.4625 53.5853 55.8201 54.3811 55.8201H58.6957V50.0673H52.943V54.3819C52.943 55.1777 52.3006 55.8201 51.5048 55.8201H47.1902V60.1346C47.1902 60.9304 46.5478 61.5728 45.752 61.5728H42.8756C42.0798 61.5728 41.4374 60.9304 41.4374 60.1346V51.5055C41.4374 50.7097 42.0798 50.0673 42.8756 50.0673H47.1902V45.7527C47.1902 44.9569 47.8326 44.3145 48.6284 44.3145H52.943V40C52.943 39.2042 53.5853 38.5618 54.3811 38.5618H58.6957V24.1799H54.3811C53.5853 24.1799 52.943 23.5375 52.943 22.7417V18.4271H48.6284C47.8326 18.4271 47.1902 17.7847 47.1902 16.9889V12.6743H32.8083V16.9889C32.8083 17.7847 32.1659 18.4271 31.3701 18.4271H27.0555V22.7417C27.0555 23.5375 26.4131 24.1799 25.6173 24.1799H21.3027V38.5618H25.6173C26.4131 38.5618 27.0555 39.2042 27.0555 40V44.3145H31.3701C32.1659 44.3145 32.8083 44.9569 32.8083 45.7527V50.0673H37.1228C37.9186 50.0673 38.561 50.7097 38.561 51.5055V60.1346C38.561 60.9304 37.9186 61.5728 37.1228 61.5728H34.2465C33.4507 61.5728 32.8083 60.9304 32.8083 60.1346V55.8201H28.4937C27.6979 55.8201 27.0555 55.1777 27.0555 54.3819V50.0673H21.3027V55.8201H24.1791ZM32.8083 42.8763V38.5618H28.4937C27.6979 38.5618 27.0555 37.9194 27.0555 37.1236V25.618C27.0555 24.8222 27.6979 24.1799 28.4937 24.1799H32.8083V19.8653C32.8083 19.0695 33.4507 18.4271 34.2465 18.4271H45.752C46.5478 18.4271 47.1902 19.0695 47.1902 19.8653V24.1799H51.5048C52.3006 24.1799 52.943 24.8222 52.943 25.618V37.1236C52.943 37.9194 52.3006 38.5618 51.5048 38.5618H47.1902V42.8763C47.1902 43.6721 46.5478 44.3145 45.752 44.3145H34.2465C33.4507 44.3145 32.8083 43.6721 32.8083 42.8763Z" fill="#010101"/>
<path d="M42.7508 28.4766H36.998V34.2293H42.7508V28.4766Z" fill="#010101"/>
</svg>
