<svg width="80" height="80" viewBox="0 0 80 80" fill="none" xmlns="http://www.w3.org/2000/svg">
<path d="M65.8876 32.8093H64.4494C63.6536 32.8093 63.0112 32.1669 63.0112 31.3711V27.0566H58.6967C57.9009 27.0566 57.2585 26.4142 57.2585 25.6184V21.3038H52.9439C52.1481 21.3038 51.5057 20.6614 51.5057 19.8656V15.551H28.4946V19.8656C28.4946 20.6614 27.8522 21.3038 27.0564 21.3038H22.7419V25.6184C22.7419 26.4142 22.0995 27.0566 21.3037 27.0566H16.9891V31.3711C16.9891 32.1669 16.3467 32.8093 15.5509 32.8093H11.2363V44.3149H16.9891V64.4495H63.0112V44.3149H68.764V32.8093H65.8876ZM18.4273 32.8093H22.7419V28.4948C22.7419 27.699 23.3843 27.0566 24.1801 27.0566H28.4946V22.742C28.4946 21.9462 29.137 21.3038 29.9328 21.3038H50.0675C50.8633 21.3038 51.5057 21.9462 51.5057 22.742V27.0566H55.8203C56.6161 27.0566 57.2585 27.699 57.2585 28.4948V32.8093H61.573C62.3688 32.8093 63.0112 33.4517 63.0112 34.2475V37.1239C63.0112 37.9197 62.3688 38.5621 61.573 38.5621H16.9891V34.2475C16.9891 33.4517 17.6315 32.8093 18.4273 32.8093ZM54.3821 58.6968H22.7419V44.3149H57.2585V58.6968H54.3821Z" fill="#010101"/>
<path d="M32.1629 47.1877H26.4102V52.9405H32.1629V47.1877Z" fill="#010101"/>
<path d="M42.95 47.1877H37.1973V52.9405H42.95V47.1877Z" fill="#010101"/>
<path d="M53.7352 47.1877H47.9824V52.9405H53.7352V47.1877Z" fill="#010101"/>
</svg>
