<svg width="80" height="80" viewBox="0 0 80 80" fill="none" xmlns="http://www.w3.org/2000/svg">
<path d="M45.7514 35.6832H47.1896H48.6278V34.245V32.8068V31.3686V29.9304H47.1896H45.7514H44.3132H42.875V31.3686V32.8068V34.245V35.6832H44.3132H45.7514Z" fill="#010101"/>
<path d="M34.2475 35.6832H35.6857H37.1239V34.245V32.8068V31.3686V29.9304H35.6857H34.2475H32.8093H31.3711V31.3686V32.8068V34.245V35.6832H32.8093H34.2475Z" fill="#010101"/>
<path d="M28.4955 47.1888H29.9337C30.7295 47.1888 31.3719 47.8312 31.3719 48.627V52.9416H48.6302V48.627C48.6302 47.8312 49.2822 47.1888 50.0684 47.1888H54.383V41.436H48.6302V45.7506C48.6302 46.5464 47.9878 47.1888 47.192 47.1888H32.8101C32.0239 47.1888 31.3719 46.5464 31.3719 45.7506V41.436H25.6191V47.1888H28.4955Z" fill="#010101"/>
<path d="M16.9877 52.944H18.4259C19.2217 52.944 19.8641 53.5864 19.8641 54.3822V58.6968H24.1787C24.9745 58.6968 25.6169 59.3392 25.6169 60.135V64.4495H54.3807V60.135C54.3807 59.3392 55.0327 58.6968 55.8189 58.6968H60.1335V54.3822C60.1335 53.5864 60.7855 52.944 61.5717 52.944H65.8862V27.0566H61.5717C60.7855 27.0566 60.1335 26.4142 60.1335 25.6184V21.3038H55.8189C55.0327 21.3038 54.3807 20.6614 54.3807 19.8656V15.551H25.6169V19.8656C25.6169 20.6614 24.9745 21.3038 24.1787 21.3038H19.8641V25.6184C19.8641 26.4142 19.2217 27.0566 18.4259 27.0566H15.5495C14.7633 27.0566 14.1113 27.699 14.1113 28.4948V52.944H16.9877ZM21.3023 27.0566H25.6169V22.742C25.6169 21.9462 26.2688 21.3038 27.0551 21.3038H52.9425C53.7383 21.3038 54.3807 21.9462 54.3807 22.742V27.0566H58.6953C59.4911 27.0566 60.1335 27.699 60.1335 28.4948V51.5058C60.1335 52.3016 59.4911 52.944 58.6953 52.944H54.3807V57.2586C54.3807 58.0544 53.7383 58.6968 52.9425 58.6968H27.0551C26.2688 58.6968 25.6169 58.0544 25.6169 57.2586V52.944H21.3023C20.5161 52.944 19.8641 52.3016 19.8641 51.5058V28.4948C19.8641 27.699 20.5161 27.0566 21.3023 27.0566Z" fill="#010101"/>
</svg>
