<svg width="80" height="80" viewBox="0 0 80 80" fill="none" xmlns="http://www.w3.org/2000/svg">
<path d="M37.0266 59.296V64H42.6812V59.3336L49.0428 52.9831H53.7173V47.3383H49.0428L42.6907 40.9973V31.5233C42.6907 30.7425 43.3221 30.1121 44.1043 30.1121H46.9317C47.7139 30.1121 48.3453 30.7425 48.3453 31.5233V35.757H54V30.1121H49.759C48.9768 30.1121 48.3453 29.4818 48.3453 28.7009V25.8785C48.3453 25.0976 48.9768 24.4673 49.759 24.4673H54V18.8224H48.3453V23.0561C48.3453 23.8369 47.7139 24.4673 46.9317 24.4673H44.1043C43.3221 24.4673 42.6907 23.8369 42.6907 23.0561V16H37.036V36.3308V41.0349L30.7122 47.3477H26V52.9926H30.7122L37.036 59.3054L37.0266 59.296ZM39.8728 46.1717L43.8687 50.1607L39.8728 54.1497L35.8768 50.1607L39.8728 46.1717Z" fill="#010101"/>
</svg>
