<svg width="80" height="80" viewBox="0 0 80 80" fill="none" xmlns="http://www.w3.org/2000/svg">
<path d="M55.5648 29.6007C55.5648 21.0037 48.5962 14.0338 39.9992 14.0336C31.4019 14.0336 24.432 21.0035 24.432 29.6007C24.4323 38.1978 31.4021 45.1664 39.9992 45.1664C48.596 45.1662 55.5646 38.1976 55.5648 29.6007ZM61.5984 29.6007C61.5982 41.5299 51.9283 51.1997 39.9992 51.2C28.0698 51.2 18.3987 41.53 18.3984 29.6007C18.3984 17.6712 28.0697 8 39.9992 8C51.9285 8.00026 61.5984 17.6714 61.5984 29.6007Z" fill="#A9A8A8"/>
<path d="M43.018 48.1689V71.9262H36.9844V48.1689H43.018Z" fill="#A9A8A8"/>
<path d="M52.7503 55.9375V61.9711H27.2578V55.9375H52.7503Z" fill="#A9A8A8"/>
</svg>
