<svg width="80" height="80" viewBox="0 0 80 80" fill="none" xmlns="http://www.w3.org/2000/svg">
<path d="M50.1781 45.8022C50.1781 36.9667 43.0073 29.8037 34.1609 29.8034C25.3143 29.8034 18.1422 36.9666 18.1422 45.8022C18.1425 54.6376 25.3145 61.7994 34.1609 61.7994C43.0072 61.7992 50.1779 54.6374 50.1781 45.8022ZM56.3867 45.8022C56.3865 58.0621 46.4361 68.0001 34.1609 68.0003C21.8855 68.0003 11.9339 58.0622 11.9336 45.8022C11.9336 33.5419 21.8854 23.6025 34.1609 23.6025C46.4362 23.6028 56.3867 33.5421 56.3867 45.8022Z" fill="#A9A8A8"/>
<path d="M68.0787 11.9287V30.6404H61.8701V18.1296H49.3438V11.9287H68.0787Z" fill="#A9A8A8"/>
<path d="M67.1699 17.2202L49.878 34.4906L45.4883 30.1049L62.7787 12.8359L67.1699 17.2202Z" fill="#A9A8A8"/>
</svg>
