<svg width="102" height="38" viewBox="0 0 102 38" fill="none" xmlns="http://www.w3.org/2000/svg">
<rect x="0.5" y="0.5" width="101" height="37" rx="11.5" fill="#F8F7F7"/>
<rect x="0.5" y="0.5" width="101" height="37" rx="11.5" stroke="#E1E0E0"/>
<path d="M36.328 18.696V19.816H30.648V21.256C31.96 21.32 32.9787 21.5653 33.704 21.992C34.4293 22.4187 34.792 22.9947 34.792 23.72C34.792 24.4987 34.3653 25.1013 33.512 25.528C32.6587 25.9653 31.4747 26.184 29.96 26.184C28.4453 26.184 27.2613 25.9653 26.408 25.528C25.5547 25.1013 25.128 24.4987 25.128 23.72C25.128 22.9947 25.4853 22.4187 26.2 21.992C26.9253 21.5653 27.944 21.32 29.256 21.256V19.816H23.608V18.696H36.328ZM29.96 22.296C28.8613 22.296 28.0133 22.4187 27.416 22.664C26.8187 22.9093 26.52 23.2613 26.52 23.72C26.52 24.1787 26.8187 24.5307 27.416 24.776C28.0133 25.0107 28.8613 25.128 29.96 25.128C31.048 25.128 31.8907 25.0053 32.488 24.76C33.0853 24.5147 33.384 24.168 33.384 23.72C33.384 23.2613 33.0853 22.9093 32.488 22.664C31.8907 22.4187 31.048 22.296 29.96 22.296ZM35.176 12.792V13.896H30.904C30.9467 14.376 31.1867 14.824 31.624 15.24C32.0613 15.6453 32.632 15.9867 33.336 16.264C34.04 16.5307 34.8133 16.7067 35.656 16.792L35.144 17.88C33.9387 17.7413 32.8667 17.4267 31.928 16.936C31 16.4347 30.3493 15.8107 29.976 15.064C29.6027 15.8107 28.9467 16.4347 28.008 16.936C27.0693 17.4267 25.9973 17.7413 24.792 17.88L24.296 16.792C25.128 16.7067 25.896 16.5253 26.6 16.248C27.304 15.9707 27.8747 15.6293 28.312 15.224C28.7493 14.808 28.9893 14.3653 29.032 13.896H24.776V12.792H35.176ZM43.2564 19.352V17.752H39.2724V12.472H40.6484V14.008H47.2724V12.472H48.6644V17.752H44.6324V19.352H50.3124V20.472H37.5924V19.352H43.2564ZM48.7444 21.816V26.216H47.3684V22.92H39.0004V21.816H48.7444ZM40.6484 16.648H47.2724V15.08H40.6484V16.648ZM62.5208 12.136V16.36H64.5528V17.512H62.5208V21.592H61.1288V12.136H62.5208ZM51.4808 20.104C53.0808 20.104 54.3234 20.088 55.2088 20.056V19.064C54.3981 18.9787 53.7581 18.76 53.2888 18.408C52.8194 18.0453 52.5848 17.576 52.5848 17C52.5848 16.36 52.8781 15.8533 53.4648 15.48C54.0621 15.1067 54.8621 14.92 55.8648 14.92C56.8781 14.92 57.6834 15.1067 58.2808 15.48C58.8781 15.8533 59.1768 16.36 59.1768 17C59.1768 17.5653 58.9421 18.0293 58.4728 18.392C58.0141 18.7547 57.3794 18.9787 56.5688 19.064V20.008C57.9448 19.944 59.1981 19.8267 60.3288 19.656L60.4408 20.648C59.1181 20.8827 57.7528 21.0373 56.3448 21.112C54.9474 21.176 53.3901 21.208 51.6728 21.208L51.4808 20.104ZM62.5208 22.28V26.216H61.1288V23.384H53.2248V22.28H62.5208ZM55.2088 13.368V12.008H56.5688V13.368H59.9128V14.408H51.8488V13.368H55.2088ZM55.8648 15.864C55.2674 15.864 54.7874 15.9653 54.4248 16.168C54.0728 16.3707 53.8968 16.648 53.8968 17C53.8968 17.3413 54.0728 17.6187 54.4248 17.832C54.7874 18.0453 55.2674 18.152 55.8648 18.152C56.4728 18.152 56.9581 18.0453 57.3208 17.832C57.6834 17.6187 57.8648 17.3413 57.8648 17C57.8648 16.648 57.6834 16.3707 57.3208 16.168C56.9688 15.9653 56.4834 15.864 55.8648 15.864ZM77.1131 12.136V22.392H75.7211V12.136H77.1131ZM69.4171 21.352V24.776H77.5291V25.896H68.0411V21.352H69.4171ZM69.5451 13.096C70.2385 13.096 70.8678 13.2453 71.4331 13.544C71.9985 13.8427 72.4411 14.2587 72.7611 14.792C73.0811 15.3147 73.2411 15.912 73.2411 16.584C73.2411 17.2453 73.0811 17.8427 72.7611 18.376C72.4411 18.8987 71.9985 19.3093 71.4331 19.608C70.8678 19.9067 70.2385 20.056 69.5451 20.056C68.8518 20.056 68.2225 19.9067 67.6571 19.608C67.1025 19.3093 66.6598 18.8987 66.3291 18.376C66.0091 17.8427 65.8491 17.2453 65.8491 16.584C65.8491 15.912 66.0091 15.3147 66.3291 14.792C66.6598 14.2587 67.1025 13.8427 67.6571 13.544C68.2225 13.2453 68.8518 13.096 69.5451 13.096ZM69.5451 14.296C68.8731 14.296 68.3131 14.5093 67.8651 14.936C67.4278 15.3627 67.2091 15.912 67.2091 16.584C67.2091 17.2453 67.4278 17.7893 67.8651 18.216C68.3131 18.632 68.8731 18.84 69.5451 18.84C70.2171 18.84 70.7771 18.632 71.2251 18.216C71.6731 17.7893 71.8971 17.2453 71.8971 16.584C71.8971 15.912 71.6731 15.3627 71.2251 14.936C70.7771 14.5093 70.2171 14.296 69.5451 14.296Z" fill="#A9A8A8"/>
</svg>
