<svg width="80" height="80" viewBox="0 0 80 80" fill="none" xmlns="http://www.w3.org/2000/svg">
<path d="M62.2222 21.2647H60.8333C60.0648 21.2647 59.4444 20.621 59.4444 19.8235V15.5H20.5556V19.8235C20.5556 20.621 19.9352 21.2647 19.1667 21.2647H15V47.2059H19.1667C19.9352 47.2059 20.5556 47.8496 20.5556 48.6471V52.9706H35.8333C36.6019 52.9706 37.2222 53.6143 37.2222 54.4118V57.2941C37.2222 58.0916 36.6019 58.7353 35.8333 58.7353H20.5556V64.5H59.4444V58.7353H44.1667C43.3982 58.7353 42.7778 58.0916 42.7778 57.2941V54.4118C42.7778 53.6143 43.3982 52.9706 44.1667 52.9706H59.4444V48.6471C59.4444 47.8496 60.0648 47.2059 60.8333 47.2059H65V21.2647H62.2222ZM58.0556 47.2059H21.9444C21.1759 47.2059 20.5556 46.5622 20.5556 45.7647V22.7059C20.5556 21.9084 21.1759 21.2647 21.9444 21.2647H58.0556C58.8241 21.2647 59.4444 21.9084 59.4444 22.7059V45.7647C59.4444 46.5622 58.8241 47.2059 58.0556 47.2059Z" fill="#010101"/>
</svg>
