<svg width="361" height="50" viewBox="0 0 361 50" fill="none" xmlns="http://www.w3.org/2000/svg">
<rect width="361" height="50" rx="12" fill="#E1E0E0"/>
<path d="M162.356 18.024H164.132V23.432H166.292V24.888H164.132V32.312H162.356V18.024ZM153.62 28.84V19.4H160.26V20.808H155.38V27.368C157.604 27.352 159.332 27.256 161.252 26.904L161.428 28.376C159.268 28.776 157.348 28.84 154.788 28.84H153.62ZM173.46 18.344C176.58 18.344 178.564 19.368 178.564 21.08C178.564 22.792 176.58 23.816 173.46 23.816C170.34 23.816 168.356 22.792 168.356 21.08C168.356 19.368 170.34 18.344 173.46 18.344ZM167.028 26.184V24.792H179.892V26.184H167.028ZM168.548 32.12V27.336H178.34V32.12H168.548ZM170.164 21.08C170.164 21.976 171.38 22.456 173.46 22.456C175.524 22.456 176.74 21.976 176.74 21.08C176.74 20.168 175.524 19.704 173.46 19.704C171.38 19.704 170.164 20.168 170.164 21.08ZM170.276 30.728H176.612V28.728H170.276V30.728ZM187.445 18.824C190.437 18.824 192.709 20.44 192.709 22.856C192.709 25.304 190.437 26.904 187.445 26.904C184.469 26.904 182.181 25.304 182.181 22.856C182.181 20.44 184.469 18.824 187.445 18.824ZM181.013 30.488V29.048H193.909V30.488H181.013ZM183.893 22.856C183.893 24.472 185.381 25.464 187.445 25.464C189.509 25.464 190.997 24.472 190.997 22.856C190.997 21.256 189.509 20.248 187.445 20.248C185.381 20.248 183.893 21.256 183.893 22.856ZM194.997 29.208H200.549V26.872H196.533V22.2H204.645V20.408H196.501V19.016H206.389V23.592H198.261V25.464H206.709V26.872H202.293V29.208H207.893V30.632H194.997V29.208Z" fill="#888787"/>
</svg>
