<svg width="361" height="50" viewBox="0 0 361 50" fill="none" xmlns="http://www.w3.org/2000/svg">
<rect width="361" height="50" rx="12" fill="#100F0F"/>
<path d="M162.468 18.072H164.052V23.528H166.26V24.84H164.052V32.264H162.468V18.072ZM153.668 28.792V19.448H160.26V20.712H155.236V27.464C157.572 27.448 159.3 27.368 161.284 27L161.444 28.312C159.284 28.712 157.396 28.792 154.804 28.792H153.668ZM173.46 18.392C176.548 18.392 178.5 19.4 178.5 21.096C178.5 22.792 176.548 23.8 173.46 23.8C170.372 23.8 168.42 22.792 168.42 21.096C168.42 19.4 170.372 18.392 173.46 18.392ZM167.06 26.12V24.856H179.844V26.12H167.06ZM168.596 32.072V27.352H178.292V32.072H168.596ZM170.036 21.096C170.036 22.04 171.316 22.568 173.46 22.568C175.588 22.568 176.868 22.04 176.868 21.096C176.868 20.136 175.588 19.624 173.46 19.624C171.316 19.624 170.036 20.136 170.036 21.096ZM170.132 30.824H176.756V28.6H170.132V30.824ZM187.445 18.904C190.405 18.904 192.645 20.488 192.645 22.872C192.645 25.272 190.405 26.856 187.445 26.856C184.485 26.856 182.245 25.272 182.245 22.872C182.245 20.488 184.485 18.904 187.445 18.904ZM181.045 30.424V29.128H193.877V30.424H181.045ZM183.765 22.872C183.765 24.52 185.317 25.56 187.445 25.56C189.573 25.56 191.109 24.52 191.109 22.872C191.109 21.24 189.573 20.184 187.445 20.184C185.317 20.184 183.765 21.24 183.765 22.872ZM195.029 29.272H200.645V26.824H196.581V22.28H204.773V20.328H196.549V19.08H206.325V23.528H198.133V25.56H206.645V26.824H202.197V29.272H207.861V30.552H195.029V29.272Z" fill="white"/>
</svg>
