<svg width="361" height="50" viewBox="0 0 361 50" fill="none" xmlns="http://www.w3.org/2000/svg">
<path d="M0 8C0 3.58172 3.58172 0 8 0H353C357.418 0 361 3.58172 361 8V42C361 46.4183 357.418 50 353 50H7.99999C3.58172 50 0 46.4183 0 42V8Z" fill="#E3DCDF"/>
<path d="M162.58 18.104H163.972V23.624H166.244V24.776H163.972V32.232H162.58V18.104ZM153.716 28.728V19.496H160.26V20.616H155.092V27.56C157.54 27.56 159.3 27.464 161.316 27.08L161.476 28.264C159.316 28.664 157.46 28.728 154.836 28.728H153.716ZM173.444 18.44C176.5 18.44 178.42 19.432 178.42 21.112C178.42 22.792 176.5 23.768 173.444 23.768C170.388 23.768 168.468 22.792 168.468 21.112C168.468 19.432 170.388 18.44 173.444 18.44ZM167.092 26.04V24.936H179.812V26.04H167.092ZM168.644 32.024V27.384H178.26V32.024H168.644ZM169.892 21.112C169.892 22.104 171.252 22.68 173.444 22.68C175.636 22.68 176.996 22.104 176.996 21.112C176.996 20.088 175.636 19.528 173.444 19.528C171.252 19.528 169.892 20.088 169.892 21.112ZM170.004 30.904H176.9V28.488H170.004V30.904ZM187.429 18.984C190.373 18.984 192.565 20.552 192.565 22.888C192.565 25.256 190.373 26.792 187.429 26.792C184.517 26.792 182.293 25.256 182.293 22.888C182.293 20.552 184.517 18.984 187.429 18.984ZM181.077 30.344V29.192H193.829V30.344H181.077ZM183.637 22.888C183.637 24.568 185.253 25.672 187.429 25.672C189.621 25.672 191.237 24.568 191.237 22.888C191.237 21.224 189.621 20.104 187.429 20.104C185.253 20.104 183.637 21.224 183.637 22.888ZM195.061 29.352H200.725V26.776H196.645V22.36H204.885V20.264H196.613V19.144H206.261V23.464H198.005V25.656H206.581V26.776H202.101V29.352H207.813V30.488H195.061V29.352Z" fill="#847B7F"/>
</svg>
