<svg width="80" height="80" viewBox="0 0 80 80" fill="none" xmlns="http://www.w3.org/2000/svg">
<path d="M63.0118 38.5633H61.5736C60.7778 38.5633 60.1354 37.9209 60.1354 37.1251V32.8105H54.3826V37.1251C54.3826 37.9209 53.7403 38.5633 52.9445 38.5633H44.3153C43.5195 38.5633 42.8771 37.9209 42.8771 37.1251V28.496C42.8771 27.7002 43.5195 27.0578 44.3153 27.0578H48.6299V21.305H44.3153C43.5195 21.305 42.8771 20.6626 42.8771 19.8668V15.5522H37.1243V19.8668C37.1243 20.6626 36.482 21.305 35.6862 21.305H31.3716V27.0578H35.6862C36.482 27.0578 37.1243 27.7002 37.1243 28.496V37.1251C37.1243 37.9209 36.482 38.5633 35.6862 38.5633H27.057C26.2612 38.5633 25.6188 37.9209 25.6188 37.1251V32.8105H19.866V37.1251C19.866 37.9209 19.2237 38.5633 18.4279 38.5633H14.1133V44.3161H18.4279C19.2237 44.3161 19.866 44.9585 19.866 45.7543V55.8216H60.1354V45.7543C60.1354 44.9585 60.7778 44.3161 61.5736 44.3161H65.8882V38.5633H63.0118ZM58.6972 44.3161H55.8208C55.025 44.3161 54.3826 43.6737 54.3826 42.8779V40.0015C54.3826 39.2057 55.025 38.5633 55.8208 38.5633H58.6972C59.493 38.5633 60.1354 39.2057 60.1354 40.0015V42.8779C60.1354 43.6737 59.493 44.3161 58.6972 44.3161ZM19.866 42.8779V40.0015C19.866 39.2057 20.5084 38.5633 21.3042 38.5633H24.1806C24.9764 38.5633 25.6188 39.2057 25.6188 40.0015V42.8779C25.6188 43.6737 24.9764 44.3161 24.1806 44.3161H21.3042C20.5084 44.3161 19.866 43.6737 19.866 42.8779ZM38.5625 38.5633H41.4389C42.2347 38.5633 42.8771 39.2057 42.8771 40.0015V42.8779C42.8771 43.6737 42.2347 44.3161 41.4389 44.3161H38.5625C37.7667 44.3161 37.1243 43.6737 37.1243 42.8779V40.0015C37.1243 39.2057 37.7667 38.5633 38.5625 38.5633ZM37.1243 25.6196V22.7432C37.1243 21.9474 37.7667 21.305 38.5625 21.305H41.4389C42.2347 21.305 42.8771 21.9474 42.8771 22.7432V25.6196C42.8771 26.4154 42.2347 27.0578 41.4389 27.0578H38.5625C37.7667 27.0578 37.1243 26.4154 37.1243 25.6196ZM51.5063 50.0688H44.3153C43.5195 50.0688 42.8771 49.4265 42.8771 48.6307V45.7543C42.8771 44.9585 43.5195 44.3161 44.3153 44.3161H52.9445C53.7403 44.3161 54.3826 44.9585 54.3826 45.7543V48.6307C54.3826 49.4265 53.7403 50.0688 52.9445 50.0688H51.5063ZM34.248 50.0688H27.057C26.2612 50.0688 25.6188 49.4265 25.6188 48.6307V45.7543C25.6188 44.9585 26.2612 44.3161 27.057 44.3161H35.6862C36.482 44.3161 37.1243 44.9585 37.1243 45.7543V48.6307C37.1243 49.4265 36.482 50.0688 35.6862 50.0688H34.248Z" fill="#010101"/>
<path d="M57.2582 58.6963H55.82H54.3818H52.9436H51.5054H50.0673H48.6291H47.1909H45.7527H44.3145H42.8763H41.4381H39.9999H38.5617H37.1235H35.6853H34.2471H32.809H31.3708H29.9326H28.4944H27.0562H25.618H24.1798H22.7416H21.3034H19.8652V60.1345V61.5727V63.0109V64.4491H21.3034H22.7416H24.1798H25.618H27.0562H28.4944H29.9326H31.3708H32.809H34.2471H35.6853H37.1235H38.5617H39.9999H41.4381H42.8763H44.3145H45.7527H47.1909H48.6291H50.0673H51.5054H52.9436H54.3818H55.82H57.2582H58.6964H60.1346V63.0109V61.5727V60.1345V58.6963H58.6964H57.2582Z" fill="#010101"/>
</svg>
