<svg width="17" height="17" viewBox="0 0 17 17" fill="none" xmlns="http://www.w3.org/2000/svg">
<path d="M7.74805 0.895508C7.86115 0.368813 8.61248 0.368804 8.72559 0.895508L9.7334 5.58887C9.85736 6.16579 10.3088 6.61634 10.8857 6.74023L15.5791 7.74805C16.1056 7.86122 16.1056 8.61235 15.5791 8.72559L10.8857 9.7334C10.3087 9.8573 9.8573 10.3087 9.7334 10.8857L8.72559 15.5791C8.61235 16.1056 7.86123 16.1056 7.74805 15.5791L6.74023 10.8857C6.61634 10.3088 6.16578 9.85736 5.58887 9.7334L0.895508 8.72559C0.368813 8.61249 0.368804 7.86115 0.895508 7.74805L5.58887 6.74023C6.16567 6.61627 6.61627 6.16567 6.74023 5.58887L7.74805 0.895508Z" fill="#FF4093" stroke="#FF4093"/>
</svg>
