<svg width="17" height="17" viewBox="0 0 17 17" fill="none" xmlns="http://www.w3.org/2000/svg">
<path d="M7.25928 0.790047C7.48548 -0.263351 8.9885 -0.263348 9.2147 0.79005L10.2226 5.48363C10.3052 5.8683 10.6057 6.16879 10.9903 6.25139L15.6839 7.25928C16.7373 7.48548 16.7373 8.9885 15.6839 9.2147L10.9903 10.2226C10.6057 10.3052 10.3052 10.6057 10.2226 10.9903L9.2147 15.6839C8.9885 16.7373 7.48548 16.7373 7.25928 15.6839L6.25139 10.9903C6.16879 10.6057 5.8683 10.3052 5.48363 10.2226L0.790047 9.2147C-0.263351 8.9885 -0.263348 7.48548 0.79005 7.25928L5.48363 6.25139C5.8683 6.16879 6.16879 5.8683 6.25139 5.48363L7.25928 0.790047Z" fill="#EEEDED"/>
</svg>
