<svg width="80" height="80" viewBox="0 0 80 80" fill="none" xmlns="http://www.w3.org/2000/svg">
<path d="M68.6364 21.2647H67.2045C66.4123 21.2647 65.7727 20.621 65.7727 19.8235V15.5H60.0455V19.8235C60.0455 20.621 59.4059 21.2647 58.6136 21.2647H14.2273V25.5882C14.2273 26.3857 13.5877 27.0294 12.7955 27.0294H8.5V32.7941H12.7955C13.5877 32.7941 14.2273 33.4378 14.2273 34.2353V37.1176C14.2273 37.9151 13.5877 38.5588 12.7955 38.5588H8.5V58.7353H12.7955C13.5877 58.7353 14.2273 59.379 14.2273 60.1765V64.5H22.8182V60.1765C22.8182 59.379 23.4577 58.7353 24.25 58.7353H28.5455V50.0882H34.2727V45.7647C34.2727 44.9673 34.9123 44.3235 35.7045 44.3235H40V40C40 39.2025 40.6395 38.5588 41.4318 38.5588H71.5V32.7941H28.5455V38.5588H32.8409C33.6332 38.5588 34.2727 39.2025 34.2727 40V42.8824C34.2727 43.6798 33.6332 44.3235 32.8409 44.3235H22.8182V57.2941C22.8182 58.0916 22.1786 58.7353 21.3864 58.7353H15.6591C14.8668 58.7353 14.2273 58.0916 14.2273 57.2941V40C14.2273 39.2025 14.8668 38.5588 15.6591 38.5588H19.9545V32.7941H15.6591C14.8668 32.7941 14.2273 32.1504 14.2273 31.3529V28.4706C14.2273 27.6731 14.8668 27.0294 15.6591 27.0294H71.5V21.2647H68.6364Z" fill="#010101"/>
</svg>
