<svg width="131" height="36" viewBox="0 0 131 36" fill="none" xmlns="http://www.w3.org/2000/svg">
<path d="M4 0.5H127C128.933 0.5 130.5 2.067 130.5 4V32C130.5 33.933 128.933 35.5 127 35.5H4C2.067 35.5 0.5 33.933 0.5 32V4C0.5 2.067 2.067 0.5 4 0.5Z" fill="#FFEEF6"/>
<path d="M4 0.5H127C128.933 0.5 130.5 2.067 130.5 4V32C130.5 33.933 128.933 35.5 127 35.5H4C2.067 35.5 0.5 33.933 0.5 32V4C0.5 2.067 2.067 0.5 4 0.5Z" stroke="#FDBCD9"/>
<path d="M19.2305 12.0068C21.8588 12.1401 23.9492 14.3137 23.9492 16.9756L23.9424 17.2314C23.8914 18.2362 23.5408 19.1611 22.9805 19.9219L25.998 22.9395L24.9375 24L21.9199 20.9824C21.0952 21.5898 20.0774 21.9502 18.9746 21.9502L18.7188 21.9443C16.1751 21.8155 14.1358 19.7755 14.0068 17.2314L14 16.9756C14 14.2278 16.2273 12 18.9746 12L19.2305 12.0068ZM18.9746 13.5C17.0559 13.5 15.5 15.056 15.5 16.9756C15.5002 18.895 17.056 20.4502 18.9746 20.4502C20.8931 20.4501 22.4491 18.895 22.4492 16.9756C22.4492 15.056 20.8932 13.5001 18.9746 13.5Z" fill="#FF4093"/>
<path d="M33.02 13.656H38.276V14.232C38.276 14.928 38.276 15.972 38 17.352L36.98 17.244C37.232 16.044 37.268 15.168 37.268 14.508H33.02V13.656ZM32.372 18.288C33.032 18.288 33.776 18.288 34.568 18.264V16.02H35.588V18.228C36.728 18.18 37.904 18.096 38.972 17.952L39.044 18.708C36.86 19.092 34.34 19.14 32.492 19.14L32.372 18.288ZM33.98 23.172V20.064H35.012V22.332H41.036V23.172H33.98ZM39.656 20.784V12.84H40.7V16.26H42.188V17.112H40.7V20.784H39.656ZM50.5643 12.852H51.5963V18.852H50.5643V12.852ZM42.9923 17.772C44.6123 17.208 45.6443 15.792 45.6443 14.268V13.26H46.6883V14.268C46.6883 15.744 47.7443 17.052 49.3283 17.58L48.8243 18.384C47.6003 17.976 46.6523 17.112 46.1843 15.996C45.7163 17.184 44.7683 18.132 43.5083 18.588L42.9923 17.772ZM44.7563 23.268V19.428H51.5963V23.268H44.7563ZM45.7643 22.428H50.5883V20.256H45.7643V22.428ZM53.6846 13.572H59.3486V14.412H57.0446V14.76C57.0446 16.14 58.0166 17.424 59.5886 17.952L59.0606 18.78C57.8726 18.36 56.9966 17.508 56.5406 16.452C56.0846 17.616 55.1606 18.54 53.9246 18.984L53.3726 18.168C54.9926 17.604 56.0126 16.236 56.0126 14.76V14.412H53.6846V13.572ZM54.7646 20.604V19.764H61.6406V23.412H60.5966V20.604H54.7646ZM60.5966 19.2V12.852H61.6406V15.6H63.1886V16.464H61.6406V19.2H60.5966ZM63.9208 17.928H73.4608V18.768H69.2008V19.956H72.2968V23.268H65.0848V19.956H68.1688V18.768H63.9208V17.928ZM64.7968 14.028V13.188H72.5488V14.028H71.0008V16.152H72.5128V16.992H64.8448V16.152H66.3568V14.028H64.7968ZM66.1048 22.428H71.2768V20.772H66.1048V22.428ZM67.4008 16.152H69.9688V14.028H67.4008V16.152ZM77.6548 13.488H82.4908V14.34H78.6988V15.576H82.2988V16.404H78.6988V17.712C80.6668 17.712 81.8188 17.664 83.1748 17.424L83.2828 18.252C81.8428 18.504 80.6188 18.552 78.4708 18.552H77.6548V13.488ZM78.7348 23.268V19.596H85.3948V23.268H78.7348ZM79.7548 22.428H84.3748V20.424H79.7548V22.428ZM84.3508 19.056V12.852H85.3948V15.444H86.9308V16.308H85.3948V19.056H84.3508ZM89.823 13.476H90.819V14.868C90.819 16.056 91.575 17.256 92.931 17.808L92.379 18.612C91.407 18.204 90.711 17.448 90.327 16.536C89.955 17.544 89.223 18.42 88.203 18.876L87.639 18.06C89.031 17.436 89.823 16.056 89.823 14.868V13.476ZM89.451 20.652V19.812H96.567V23.412H95.523V20.652H89.451ZM93.315 19.176V13.032H94.287V15.576H95.571V12.852H96.567V19.236H95.571V16.428H94.287V19.176H93.315ZM105.255 12.852H106.299V17.16H108.003V18.024H106.299V23.412H105.255V12.852ZM98.0913 15.36V14.52H100.707V12.984H101.763V14.52H104.319V15.36H98.0913ZM98.6673 18.636C98.6673 17.208 99.7593 16.2 101.247 16.2C102.747 16.2 103.839 17.208 103.839 18.636C103.839 20.076 102.747 21.072 101.247 21.072C99.7593 21.072 98.6673 20.076 98.6673 18.636ZM99.6633 18.636C99.6633 19.572 100.323 20.208 101.247 20.208C102.171 20.208 102.831 19.572 102.831 18.636C102.831 17.712 102.171 17.052 101.247 17.052C100.323 17.052 99.6633 17.712 99.6633 18.636ZM116.272 12.84H117.316V23.4H116.272V12.84ZM108.748 20.628C111.556 19.284 112.936 17.304 113.14 14.82H109.24V13.968H114.196C114.196 17.052 112.864 19.728 109.3 21.456L108.748 20.628Z" fill="#FF4093"/>
</svg>
