<svg width="131" height="36" viewBox="0 0 131 36" fill="none" xmlns="http://www.w3.org/2000/svg">
<rect x="0.5" y="0.5" width="130" height="35" rx="3.5" fill="#FFEEF6"/>
<rect x="0.5" y="0.5" width="130" height="35" rx="3.5" stroke="#FDBCD9"/>
<path d="M19.2305 12.0068C21.8588 12.1401 23.9492 14.3137 23.9492 16.9756L23.9424 17.2314C23.8914 18.2362 23.5408 19.1611 22.9805 19.9219L25.998 22.9395L24.9375 24L21.9199 20.9824C21.0952 21.5898 20.0774 21.9502 18.9746 21.9502L18.7188 21.9443C16.1751 21.8155 14.1358 19.7755 14.0068 17.2314L14 16.9756C14 14.2278 16.2273 12 18.9746 12L19.2305 12.0068ZM18.9746 13.5C17.0559 13.5 15.5 15.056 15.5 16.9756C15.5002 18.895 17.056 20.4502 18.9746 20.4502C20.8931 20.4501 22.4491 18.895 22.4492 16.9756C22.4492 15.056 20.8932 13.5001 18.9746 13.5Z" fill="#FF4093"/>
<path d="M38.276 13.656V14.232C38.276 14.752 38.26 15.252 38.228 15.732C38.196 16.212 38.12 16.752 38 17.352L36.98 17.244C37.172 16.332 37.268 15.42 37.268 14.508H33.02V13.656H38.276ZM35.588 16.02V18.228C36.884 18.172 38.012 18.08 38.972 17.952L39.044 18.708C37.404 18.996 35.22 19.14 32.492 19.14L32.372 18.288C33.308 18.288 34.04 18.28 34.568 18.264V16.02H35.588ZM40.7 12.84V16.26H42.188V17.112H40.7V20.784H39.656V12.84H40.7ZM35.012 20.064V22.332H41.036V23.172H33.98V20.064H35.012ZM51.5963 12.852V18.852H50.5643V12.852H51.5963ZM51.5963 19.428V23.268H44.7563V19.428H51.5963ZM45.7643 20.256V22.428H50.5883V20.256H45.7643ZM46.6883 13.26V14.268C46.6883 15.004 46.9283 15.676 47.4083 16.284C47.8963 16.884 48.5363 17.316 49.3283 17.58L48.8243 18.384C48.2163 18.184 47.6803 17.876 47.2163 17.46C46.7603 17.044 46.4163 16.556 46.1843 15.996C45.9443 16.596 45.5923 17.124 45.1283 17.58C44.6723 18.028 44.1323 18.364 43.5083 18.588L42.9923 17.772C43.7923 17.492 44.4323 17.032 44.9123 16.392C45.4003 15.744 45.6443 15.036 45.6443 14.268V13.26H46.6883ZM59.3486 13.572V14.412H57.0446V14.76C57.0446 15.456 57.2726 16.096 57.7286 16.68C58.1926 17.264 58.8126 17.688 59.5886 17.952L59.0606 18.78C58.4766 18.572 57.9686 18.268 57.5366 17.868C57.1046 17.46 56.7726 16.988 56.5406 16.452C56.3086 17.036 55.9686 17.552 55.5206 18C55.0726 18.44 54.5406 18.768 53.9246 18.984L53.3726 18.168C54.1726 17.888 54.8126 17.436 55.2926 16.812C55.7726 16.188 56.0126 15.504 56.0126 14.76V14.412H53.6846V13.572H59.3486ZM61.6406 12.852V15.6H63.1886V16.464H61.6406V19.2H60.5966V12.852H61.6406ZM61.6406 19.764V23.412H60.5966V20.604H54.7646V19.764H61.6406ZM73.4608 17.928V18.768H69.2008V19.956H72.2968V23.268H65.0848V19.956H68.1688V18.768H63.9208V17.928H73.4608ZM72.5488 13.188V14.028H71.0008V16.152H72.5128V16.992H64.8448V16.152H66.3568V14.028H64.7968V13.188H72.5488ZM66.1048 20.772V22.428H71.2768V20.772H66.1048ZM69.9688 16.152V14.028H67.4008V16.152H69.9688ZM82.4908 13.488V14.34H78.6988V15.576H82.2988V16.404H78.6988V17.712C79.7388 17.712 80.5828 17.692 81.2308 17.652C81.8788 17.612 82.5268 17.536 83.1748 17.424L83.2828 18.252C82.5948 18.372 81.9028 18.452 81.2068 18.492C80.5188 18.532 79.6068 18.552 78.4708 18.552H77.6548V13.488H82.4908ZM85.3948 19.596V23.268H78.7348V19.596H85.3948ZM79.7548 20.424V22.428H84.3748V20.424H79.7548ZM85.3948 12.852V15.444H86.9308V16.308H85.3948V19.056H84.3508V12.852H85.3948ZM90.819 13.476V14.868C90.819 15.484 91.003 16.06 91.371 16.596C91.747 17.132 92.267 17.536 92.931 17.808L92.379 18.612C91.907 18.412 91.495 18.132 91.143 17.772C90.799 17.412 90.527 17 90.327 16.536C90.135 17.056 89.855 17.52 89.487 17.928C89.127 18.336 88.699 18.652 88.203 18.876L87.639 18.06C88.087 17.86 88.475 17.588 88.803 17.244C89.139 16.892 89.391 16.508 89.559 16.092C89.735 15.676 89.823 15.268 89.823 14.868V13.476H90.819ZM96.567 12.852V19.236H95.571V16.428H94.287V19.176H93.315V13.032H94.287V15.576H95.571V12.852H96.567ZM96.567 19.812V23.412H95.523V20.652H89.451V19.812H96.567ZM106.299 12.852V17.16H108.003V18.024H106.299V23.412H105.255V12.852H106.299ZM100.707 14.52V12.984H101.763V14.52H104.319V15.36H98.0913V14.52H100.707ZM101.247 16.2C101.743 16.2 102.187 16.304 102.579 16.512C102.971 16.72 103.279 17.008 103.503 17.376C103.727 17.744 103.839 18.164 103.839 18.636C103.839 19.108 103.727 19.532 103.503 19.908C103.279 20.276 102.971 20.564 102.579 20.772C102.187 20.972 101.743 21.072 101.247 21.072C100.759 21.072 100.319 20.968 99.9273 20.76C99.5353 20.552 99.2273 20.264 99.0033 19.896C98.7793 19.528 98.6673 19.108 98.6673 18.636C98.6673 18.164 98.7793 17.744 99.0033 17.376C99.2273 17.008 99.5353 16.72 99.9273 16.512C100.319 16.304 100.759 16.2 101.247 16.2ZM101.247 17.052C100.783 17.052 100.403 17.2 100.107 17.496C99.8113 17.792 99.6633 18.172 99.6633 18.636C99.6633 19.1 99.8113 19.48 100.107 19.776C100.403 20.064 100.783 20.208 101.247 20.208C101.711 20.208 102.091 20.064 102.387 19.776C102.683 19.48 102.831 19.1 102.831 18.636C102.831 18.172 102.683 17.792 102.387 17.496C102.091 17.2 101.711 17.052 101.247 17.052ZM117.316 12.84V23.4H116.272V12.84H117.316ZM114.196 13.968C114.196 17.376 112.564 19.872 109.3 21.456L108.748 20.628C111.468 19.324 112.932 17.388 113.14 14.82H109.24V13.968H114.196Z" fill="#FF4093"/>
</svg>
