<svg width="24" height="24" viewBox="0 0 24 24" fill="none" xmlns="http://www.w3.org/2000/svg">
<path d="M10.5061 16.4776L17.5829 9.40079L16.4737 8.29158L10.5061 14.2592L7.50605 11.2592L6.39684 12.3684L10.5061 16.4776ZM12.0018 22C10.6187 22 9.3186 21.7375 8.10158 21.2126C6.88456 20.6877 5.82596 19.9754 4.92579 19.0755C4.02561 18.1757 3.31289 17.1175 2.78763 15.9011C2.26254 14.6846 2 13.3848 2 12.0018C2 10.6187 2.26246 9.3186 2.78737 8.10158C3.31228 6.88456 4.02465 5.82596 4.92447 4.92579C5.8243 4.02561 6.88246 3.31289 8.09895 2.78763C9.31544 2.26254 10.6152 2 11.9982 2C13.3813 2 14.6814 2.26246 15.8984 2.78737C17.1154 3.31228 18.174 4.02465 19.0742 4.92447C19.9744 5.8243 20.6871 6.88246 21.2124 8.09895C21.7375 9.31544 22 10.6152 22 11.9982C22 13.3813 21.7375 14.6814 21.2126 15.8984C20.6877 17.1154 19.9754 18.174 19.0755 19.0742C18.1757 19.9744 17.1175 20.6871 15.9011 21.2124C14.6846 21.7375 13.3848 22 12.0018 22Z" fill="#100F0F"/>
</svg>
