<svg width="121" height="36" viewBox="0 0 121 36" fill="none" xmlns="http://www.w3.org/2000/svg">
<rect x="0.5" y="0.5" width="120" height="35" rx="3.5" fill="#FFEEF6"/>
<rect x="0.5" y="0.5" width="120" height="35" rx="3.5" stroke="#FDBCD9"/>
<path d="M19.2305 12.0068C21.8588 12.1401 23.9492 14.3137 23.9492 16.9756L23.9424 17.2314C23.8914 18.2362 23.5408 19.1611 22.9805 19.9219L25.998 22.9395L24.9375 24L21.9199 20.9824C21.0952 21.5898 20.0774 21.9502 18.9746 21.9502L18.7188 21.9443C16.1751 21.8155 14.1358 19.7755 14.0068 17.2314L14 16.9756C14 14.2278 16.2273 12 18.9746 12L19.2305 12.0068ZM18.9746 13.5C17.0559 13.5 15.5 15.056 15.5 16.9756C15.5002 18.895 17.056 20.4502 18.9746 20.4502C20.8931 20.4501 22.4491 18.895 22.4492 16.9756C22.4492 15.056 20.8932 13.5001 18.9746 13.5Z" fill="#FF4093"/>
<path d="M41.132 12.828V23.424H40.088V12.828H41.132ZM37.928 13.824V17.628H34.1V20.016C35.012 20.016 35.86 19.988 36.644 19.932C37.436 19.876 38.264 19.78 39.128 19.644L39.236 20.496C38.356 20.64 37.508 20.74 36.692 20.796C35.876 20.844 34.96 20.868 33.944 20.868H33.056V16.788H36.884V14.664H33.032V13.824H37.928ZM52.5083 18.996V19.848H50.1323V23.412H49.0763V19.848H46.3523V23.412H45.3083V19.848H42.9443V18.996H52.5083ZM45.1643 13.26V14.64H50.2643V13.26H51.2963V17.784H44.1323V13.26H45.1643ZM45.1643 16.932H50.2643V15.48H45.1643V16.932ZM64.4182 12.84V15.24H65.9662V16.104H64.4182V18.816H63.3742V12.84H64.4182ZM64.4182 19.368V23.256H57.7342V19.368H64.4182ZM58.7542 20.196V22.416H63.4102V20.196H58.7542ZM57.7462 13.368V17.184C59.3862 17.168 60.9182 17.016 62.3422 16.728L62.4622 17.568C60.9422 17.888 59.3062 18.048 57.5542 18.048H56.7022V13.368H57.7462ZM75.3625 12.84V23.4H74.3185V12.84H75.3625ZM72.2425 13.968C72.2425 17.376 70.6105 19.872 67.3465 21.456L66.7945 20.628C69.5145 19.324 70.9785 17.388 71.1865 14.82H67.2865V13.968H72.2425ZM85.8628 12.828V23.424H84.8308V17.712H82.8748V16.86H84.8308V12.828H85.8628ZM82.2508 13.824V17.544H78.5788V20.028C79.4908 20.028 80.2908 20.004 80.9788 19.956C81.6668 19.908 82.3708 19.824 83.0908 19.704L83.1868 20.556C82.4428 20.684 81.7068 20.772 80.9788 20.82C80.2508 20.868 79.3828 20.892 78.3748 20.892H77.5468V16.716H81.2308V14.664H77.5348V13.824H82.2508ZM95.811 12.828V17.088H97.455V17.964H95.811V23.4H94.755V12.828H95.811ZM93.075 13.968C93.075 15.56 92.687 16.996 91.911 18.276C91.143 19.548 89.935 20.596 88.287 21.42L87.699 20.628C89.019 19.964 90.039 19.144 90.759 18.168C91.487 17.184 91.907 16.068 92.019 14.82H88.215V13.968H93.075ZM106.827 12.84V23.4H105.783V12.84H106.827ZM103.707 13.968C103.707 17.376 102.075 19.872 98.8113 21.456L98.2593 20.628C100.979 19.324 102.443 17.388 102.651 14.82H98.7513V13.968H103.707Z" fill="#FF4093"/>
</svg>
