<svg width="361" height="50" viewBox="0 0 361 50" fill="none" xmlns="http://www.w3.org/2000/svg">
<rect width="361" height="50" rx="12" fill="#100F0F"/>
<path d="M107.406 18.9531C110.469 18.9531 112.75 20.5 112.766 22.8438C112.75 24.9844 110.945 26.4297 108.391 26.7188V29.1406H113.938V30.7812H100.922V29.1406H106.406V26.7031C103.859 26.4297 102.062 24.9766 102.062 22.8438C102.062 20.5 104.344 18.9531 107.406 18.9531ZM107.406 20.5469C105.422 20.5469 104.031 21.4219 104.031 22.8438C104.031 24.3438 105.422 25.1875 107.406 25.1875C109.406 25.1875 110.781 24.3438 110.797 22.8438C110.781 21.4219 109.406 20.5469 107.406 20.5469ZM126.562 18.8125V20.375H124.703V22.8438H126.469V24.4219H115.984V22.8438H117.734V20.375H115.891V18.8125H126.562ZM127.719 25.5625V27.125H114.75V25.5625H127.719ZM126.25 30.5938V32.1875H116.312V28.0938H118.312V30.5938H126.25ZM119.734 22.8438H122.703V20.375H119.734V22.8438ZM136.703 22.5156C136.703 24.6562 137.469 26.8281 139.516 27.9062L138.406 29.375C137.125 28.7188 136.273 27.5703 135.781 26.1719C135.281 27.6953 134.43 28.9688 133.141 29.7031L132.016 28.2031C134.031 27.0469 134.812 24.7188 134.828 22.5156V22.25H132.469V20.625H134.828V18.7031H136.688V20.625H139.031V22.25H136.703V22.5156ZM144.672 18.2188V32.4375H142.766V25.3125H141.562V31.7812H139.672V18.4219H141.562V23.6875H142.766V18.2188H144.672ZM153.766 19.2031V20.7969H148.875V21.9062H153.344V23.4531H148.875V24.5938C151.375 24.5938 152.961 24.5625 154.766 24.2656L154.969 25.8281C152.938 26.1562 151.141 26.2031 148.094 26.1875H146.875V19.2031H153.766ZM158 18.2344V26.8438H156V18.2344H158ZM153.156 27.0312C156.156 27.0312 158.062 28.0312 158.078 29.7344C158.062 31.4531 156.156 32.4375 153.156 32.4375C150.109 32.4375 148.266 31.4531 148.266 29.7344C148.266 28.0312 150.109 27.0312 153.156 27.0312ZM153.156 28.5781C151.25 28.5781 150.25 28.9688 150.25 29.7344C150.25 30.5156 151.25 30.9219 153.156 30.9219C155.047 30.9219 156.078 30.5156 156.078 29.7344C156.078 28.9688 155.047 28.5781 153.156 28.5781ZM166.547 26.9219C169.5 26.9219 171.344 27.9375 171.344 29.6719C171.344 31.4375 169.5 32.4531 166.547 32.4531C163.531 32.4531 161.672 31.4375 161.672 29.6719C161.672 27.9375 163.531 26.9219 166.547 26.9219ZM166.547 28.4688C164.672 28.4688 163.656 28.8594 163.672 29.6719C163.656 30.4844 164.672 30.9062 166.547 30.9062C168.391 30.9062 169.375 30.4844 169.375 29.6719C169.375 28.8594 168.391 28.4688 166.547 28.4688ZM171.203 18.2188V21.5156H173.125V23.1875H171.203V26.6094H169.203V18.2188H171.203ZM162.328 19.1094V20.9062H165.234V19.1094H167.234V25.7969H160.344V19.1094H162.328ZM162.328 24.2188H165.234V22.4531H162.328V24.2188ZM180.234 18.9375C183.234 18.9531 185.578 20.5625 185.594 23.0312C185.578 25.5156 183.234 27.1406 180.234 27.125C177.219 27.1406 174.891 25.5156 174.891 23.0312C174.891 20.5625 177.219 18.9531 180.234 18.9375ZM180.234 20.5625C178.266 20.5469 176.828 21.5 176.828 23.0312C176.828 24.5781 178.266 25.5 180.234 25.5C182.203 25.5 183.609 24.5781 183.625 23.0312C183.609 21.5 182.203 20.5469 180.234 20.5625ZM186.766 29.0938V30.7031H173.75V29.0938H186.766ZM200.594 29.2188V30.8594H187.578V29.2188H193.062V27.0781H189.078V22.2969H197.125V20.7344H189.062V19.1406H199.094V23.8594H191.078V25.4531H199.422V27.0781H195.047V29.2188H200.594ZM217 18.2188V32.4688H214.984V18.2188H217ZM209.281 19.2188C211.422 19.2188 213.016 21.1875 213.016 24.2812C213.016 27.4062 211.422 29.3594 209.281 29.3594C207.094 29.3594 205.5 27.4062 205.516 24.2812C205.5 21.1875 207.094 19.2188 209.281 19.2188ZM209.281 21.0156C208.172 21.0156 207.438 22.1719 207.438 24.2812C207.438 26.4062 208.172 27.5469 209.281 27.5469C210.359 27.5469 211.094 26.4062 211.094 24.2812C211.094 22.1719 210.359 21.0156 209.281 21.0156ZM231.922 24.9375V26.5H218.922V24.9375H224.453V23.7188H220.5V18.8438H230.359V20.3906H222.484V22.1562H230.438V23.7188H226.406V24.9375H231.922ZM225.391 27.2188C228.469 27.2188 230.328 28.1562 230.344 29.8438C230.328 31.5 228.469 32.4531 225.391 32.4531C222.281 32.4531 220.406 31.5 220.406 29.8438C220.406 28.1562 222.281 27.2188 225.391 27.2188ZM225.391 28.7344C223.422 28.7344 222.422 29.1094 222.438 29.8438C222.422 30.5938 223.422 30.9375 225.391 30.9375C227.312 30.9375 228.328 30.5938 228.344 29.8438C228.328 29.1094 227.312 28.7344 225.391 28.7344ZM243.969 18.2188V23.7812H246.062V25.4219H243.969V32.4375H242V18.2188H243.969ZM241.031 20.3438V21.9375H232.672V20.3438H235.891V18.4375H237.891V20.3438H241.031ZM236.891 22.7344C238.969 22.7344 240.516 24.1406 240.516 26.125C240.516 28.1094 238.969 29.5156 236.891 29.5156C234.797 29.5156 233.25 28.1094 233.25 26.125C233.25 24.1406 234.797 22.7344 236.891 22.7344ZM236.891 24.3438C235.891 24.3594 235.156 25.0312 235.156 26.125C235.156 27.2344 235.891 27.8906 236.891 27.875C237.891 27.8906 238.609 27.2344 238.609 26.125C238.609 25.0312 237.891 24.3594 236.891 24.3438ZM258.531 18.2188V32.4375H256.516V18.2188H258.531ZM254.266 19.7031C254.266 24.0156 252.75 27.5938 247.672 30L246.625 28.4062C250.297 26.6719 251.914 24.4219 252.234 21.2656H247.391V19.7031H254.266Z" fill="white"/>
</svg>
