<svg width="60" height="60" viewBox="0 0 60 60" fill="none" xmlns="http://www.w3.org/2000/svg">
<rect width="60" height="60" rx="30" fill="#FFE1ED"/>
<path d="M28.5756 19.151C28.9052 17.6163 31.0948 17.6163 31.4244 19.151L32.8927 25.9888C33.013 26.5492 33.4508 26.987 34.0112 27.1073L40.849 28.5756C42.3837 28.9052 42.3837 31.0948 40.849 31.4244L34.0112 32.8927C33.4508 33.013 33.013 33.4508 32.8927 34.0112L31.4244 40.849C31.0948 42.3837 28.9052 42.3837 28.5756 40.849L27.1073 34.0112C26.987 33.4508 26.5492 33.013 25.9888 32.8927L19.151 31.4244C17.6163 31.0948 17.6163 28.9052 19.151 28.5756L25.9888 27.1073C26.5492 26.987 26.987 26.5492 27.1073 25.9888L28.5756 19.151Z" fill="#FF4093"/>
</svg>
