<svg width="373" height="96" viewBox="0 0 373 96" fill="none" xmlns="http://www.w3.org/2000/svg">
<g filter="url(#filter0_d_4315_32154)">
<rect x="20" y="16" width="333" height="56" rx="12" fill="#100F0F" shape-rendering="crispEdges"/>
<path d="M45.8672 52.5L56.0017 35L66.1362 52.5H45.8672ZM56.0017 49.8077C56.2305 49.8077 56.4224 49.7303 56.5772 49.5755C56.732 49.4207 56.8094 49.2288 56.8094 49C56.8094 48.7712 56.732 48.5793 56.5772 48.4245C56.4224 48.2697 56.2305 48.1923 56.0017 48.1923C55.7729 48.1923 55.581 48.2697 55.4262 48.4245C55.2714 48.5793 55.1939 48.7712 55.1939 49C55.1939 49.2288 55.2714 49.4207 55.4262 49.5755C55.581 49.7303 55.7729 49.8077 56.0017 49.8077ZM55.2517 47.1923H56.7517V42.1923H55.2517V47.1923Z" fill="#FF80B3"/>
<path d="M104.682 37.136H106.058V47.424H104.682V37.136ZM94.6341 44.336C96.7781 43.504 98.1381 41.472 98.1381 39.328V37.904H99.5301V39.328C99.5301 41.408 100.874 43.312 103.002 44.08L102.282 45.184C100.682 44.576 99.4661 43.344 98.8421 41.776C98.2341 43.44 97.0181 44.784 95.3541 45.44L94.6341 44.336ZM96.9861 50.896V46.48H98.3781V49.776H106.49V50.896H96.9861ZM109.85 38.512H119.754V39.888C119.754 41.632 119.754 43.568 119.242 46.432L117.834 46.272C118.362 43.568 118.362 41.584 118.362 39.888V39.648H109.85V38.512ZM108.506 49.264V48.112H113.402V43.104H114.778V48.112H121.242V49.264H108.506ZM131.947 37.104H133.355V42.784H135.547V43.952H133.355V51.2H131.947V37.104ZM122.539 47.504C126.091 45.712 127.995 43.072 128.299 39.76H123.227V38.624H129.707C129.707 42.656 127.899 46.272 123.323 48.56L122.539 47.504ZM147.667 40.752H150.371V37.136H151.763V45.504H150.371V41.888H147.667V40.752ZM140.195 44.304C142.307 43.536 143.699 41.648 143.699 39.648V39.264H140.595V38.128H148.131V39.264H145.091V39.648C145.091 41.456 146.403 43.2 148.483 43.92L147.763 45.008C146.195 44.448 145.027 43.296 144.419 41.872C143.827 43.488 142.563 44.784 140.899 45.408L140.195 44.304ZM142.403 48.576C142.403 46.912 144.179 45.92 147.107 45.92C150.019 45.92 151.811 46.912 151.811 48.576C151.811 50.24 150.019 51.2 147.107 51.2C144.179 51.2 142.403 50.24 142.403 48.576ZM143.779 48.576C143.779 49.552 145.027 50.128 147.107 50.128C149.187 50.128 150.435 49.552 150.435 48.576C150.435 47.584 149.187 47.008 147.107 47.008C145.027 47.008 143.779 47.584 143.779 48.576ZM157.539 37.856H158.899V39.376C158.899 41.264 160.243 43.008 162.291 43.712L161.571 44.784C160.035 44.224 158.851 43.088 158.243 41.648C157.651 43.28 156.451 44.544 154.803 45.184L154.051 44.08C156.227 43.296 157.539 41.392 157.539 39.28V37.856ZM155.955 48.608C155.955 46.976 157.715 46.016 160.595 46.016C163.491 46.016 165.235 46.976 165.235 48.608C165.235 50.24 163.491 51.184 160.595 51.184C157.715 51.184 155.955 50.24 155.955 48.608ZM157.315 48.608C157.315 49.552 158.547 50.096 160.595 50.096C162.643 50.096 163.875 49.552 163.875 48.608C163.875 47.648 162.643 47.104 160.595 47.104C158.547 47.104 157.315 47.648 157.315 48.608ZM163.699 45.648V37.136H165.091V40.72H167.155V41.872H165.091V45.648H163.699ZM175.667 40.752H178.323V37.136H179.715V45.536H178.323V41.904H175.667V40.752ZM168.147 44.24C170.259 43.504 171.651 41.632 171.651 39.664V39.2H168.563V38.064H176.099V39.2H173.043V39.664C173.043 41.456 174.371 43.2 176.451 43.92L175.731 45.024C174.163 44.448 172.995 43.296 172.387 41.872C171.779 43.472 170.531 44.736 168.867 45.328L168.147 44.24ZM170.307 47.424V46.288H179.715V51.216H178.323V47.424H170.307ZM188.468 37.984C191.412 37.984 193.604 39.552 193.604 41.888C193.604 44.256 191.412 45.792 188.468 45.792C185.556 45.792 183.332 44.256 183.332 41.888C183.332 39.552 185.556 37.984 188.468 37.984ZM182.116 49.344V48.192H194.868V49.344H182.116ZM184.676 41.888C184.676 43.568 186.292 44.672 188.468 44.672C190.66 44.672 192.276 43.568 192.276 41.888C192.276 40.224 190.66 39.104 188.468 39.104C186.292 39.104 184.676 40.224 184.676 41.888ZM196.1 48.352H201.764V45.776H197.684V41.36H205.924V39.264H197.652V38.144H207.3V42.464H199.044V44.656H207.62V45.776H203.14V48.352H208.852V49.488H196.1V48.352ZM218.028 37.76C220.044 37.76 221.484 38.88 221.484 40.56C221.484 42.016 220.38 43.04 218.748 43.28V44.608C220.012 44.544 221.292 44.432 222.46 44.256L222.572 45.264C219.644 45.808 216.332 45.84 213.916 45.84L213.74 44.72C214.812 44.72 216.06 44.72 217.356 44.672V43.28C215.692 43.072 214.556 42.032 214.556 40.56C214.556 38.88 215.996 37.76 218.028 37.76ZM215.756 50.896V46.976H217.148V49.76H225.212V50.896H215.756ZM215.852 40.56C215.852 41.6 216.732 42.288 218.028 42.288C219.308 42.288 220.204 41.6 220.204 40.56C220.204 39.52 219.308 38.832 218.028 38.832C216.732 38.832 215.852 39.52 215.852 40.56ZM223.324 47.904V37.136H224.716V41.84H226.748V42.992H224.716V47.904H223.324ZM227.756 48.352H231.276V45.744H229.34V41.344H237.58V39.264H229.308V38.144H238.956V42.448H230.7V44.624H239.276V45.744H237.116V48.352H240.508V49.488H227.756V48.352ZM232.636 48.352H235.772V45.744H232.636V48.352ZM241.661 44.24C242.525 44.24 243.645 44.24 244.813 44.192V42.576H242.509V38.016H248.317V39.12H243.853V41.44H248.365V42.576H246.109V44.144C247.053 44.096 247.965 44.016 248.781 43.904L248.845 44.864C246.589 45.312 243.661 45.344 241.837 45.344L241.661 44.24ZM242.461 50.048C244.269 49.488 245.277 48.128 245.277 46.752V46.368H246.621V46.752C246.621 47.872 247.245 49.152 248.525 49.888C249.821 49.136 250.461 47.856 250.461 46.752V46.368H251.805V46.752C251.805 48.144 252.829 49.504 254.621 50.048L253.965 51.072C252.589 50.608 251.613 49.712 251.133 48.592C250.701 49.696 249.853 50.688 248.541 51.184C247.213 50.688 246.365 49.696 245.949 48.592C245.453 49.696 244.493 50.608 243.117 51.072L242.461 50.048ZM249.437 45.712V37.408H250.733V41.024H252.301V37.12H253.629V45.792H252.301V42.144H250.733V45.712H249.437ZM259.485 38.192C261.373 38.192 262.781 39.824 262.973 42.464H265.965V37.104H267.325V51.232H265.965V43.568H262.989C262.861 46.32 261.437 48.048 259.485 48.048C257.421 48.048 255.965 46.128 255.965 43.12C255.965 40.096 257.421 38.192 259.485 38.192ZM257.277 43.12C257.277 45.376 258.173 46.816 259.485 46.816C260.797 46.816 261.693 45.376 261.693 43.12C261.693 40.864 260.797 39.44 259.485 39.44C258.173 39.44 257.277 40.864 257.277 43.12ZM269.71 48.272H272.798V44.528C271.63 43.888 270.926 42.896 270.926 41.616C270.926 39.408 273.086 37.984 276.062 37.984C279.07 37.984 281.198 39.408 281.198 41.616C281.198 42.88 280.51 43.872 279.374 44.496V48.272H282.462V49.408H269.71V48.272ZM272.286 41.616C272.286 43.168 273.854 44.16 276.062 44.16C278.286 44.16 279.854 43.168 279.854 41.616C279.854 40.08 278.286 39.072 276.062 39.072C273.854 39.072 272.286 40.08 272.286 41.616ZM274.174 48.272H277.982V45.024C277.406 45.168 276.75 45.248 276.062 45.248C275.39 45.248 274.75 45.168 274.174 45.04V48.272Z" fill="#F8F7F7"/>
<path d="M313.109 51L312 49.8914L317.891 44L312 38.1086L313.109 37L319 42.8914L324.891 37L326 38.1086L320.109 44L326 49.8914L324.891 51L319 45.1086L313.109 51Z" fill="#CECDCD"/>
</g>
<defs>
<filter id="filter0_d_4315_32154" x="0" y="0" width="373" height="96" filterUnits="userSpaceOnUse" color-interpolation-filters="sRGB">
<feFlood flood-opacity="0" result="BackgroundImageFix"/>
<feColorMatrix in="SourceAlpha" type="matrix" values="0 0 0 0 0 0 0 0 0 0 0 0 0 0 0 0 0 0 127 0" result="hardAlpha"/>
<feOffset dy="4"/>
<feGaussianBlur stdDeviation="10"/>
<feComposite in2="hardAlpha" operator="out"/>
<feColorMatrix type="matrix" values="0 0 0 0 0 0 0 0 0 0 0 0 0 0 0 0 0 0 0.25 0"/>
<feBlend mode="normal" in2="BackgroundImageFix" result="effect1_dropShadow_4315_32154"/>
<feBlend mode="normal" in="SourceGraphic" in2="effect1_dropShadow_4315_32154" result="shape"/>
</filter>
</defs>
</svg>
