<svg width="16" height="16" viewBox="0 0 16 16" fill="none" xmlns="http://www.w3.org/2000/svg">
<path d="M7.18799 1.41313C7.58921 0.862292 8.41079 0.862291 8.81201 1.41313L9.67218 2.59408C9.89408 2.89873 10.2678 3.05354 10.6402 2.99503L12.0834 2.7682C12.7566 2.6624 13.3376 3.24335 13.2318 3.91655L13.005 5.35985C12.9465 5.73217 13.1013 6.10592 13.4059 6.32782L14.5869 7.18799C15.1377 7.58921 15.1377 8.41079 14.5869 8.81201L13.4059 9.67218C13.1013 9.89408 12.9465 10.2678 13.005 10.6402L13.2318 12.0834C13.3376 12.7566 12.7566 13.3376 12.0834 13.2318L10.6402 13.005C10.2678 12.9465 9.89408 13.1013 9.67218 13.4059L8.81201 14.5869C8.41079 15.1377 7.58921 15.1377 7.18799 14.5869L6.32782 13.4059C6.10592 13.1013 5.73217 12.9465 5.35985 13.005L3.91655 13.2318C3.24335 13.3376 2.6624 12.7566 2.7682 12.0834L2.99503 10.6402C3.05354 10.2678 2.89873 9.89408 2.59408 9.67218L1.41313 8.81201C0.862292 8.41079 0.862291 7.58921 1.41313 7.18799L2.59408 6.32782C2.89873 6.10592 3.05354 5.73217 2.99503 5.35985L2.7682 3.91655C2.6624 3.24335 3.24335 2.6624 3.91655 2.7682L5.35985 2.99503C5.73217 3.05354 6.10592 2.89873 6.32782 2.59408L7.18799 1.41313Z" fill="#FF4093"/>
<path d="M7.03382 10.5L5 8.585L5.51302 8.10194L7.03382 9.53389L10.787 6L11.3 6.48305L7.03382 10.5Z" fill="white"/>
</svg>
