<svg width="96" height="36" viewBox="8 6 96 36" fill="none" xmlns="http://www.w3.org/2000/svg">
<rect x="8" y="6" width="96" height="36" rx="4" fill="white"/>
<path d="M26.626 17.744V26.746H25.422V17.744H26.626ZM19.906 25.92V28.804H27.004V29.784H18.688V25.92H19.906ZM20.914 18.416V19.662C20.914 20.5767 21.1893 21.4167 21.74 22.182C22.2907 22.938 23.028 23.484 23.952 23.82L23.322 24.786C22.6313 24.5247 22.0247 24.1373 21.502 23.624C20.9793 23.1013 20.5827 22.4947 20.312 21.804C20.0413 22.5413 19.6447 23.19 19.122 23.75C18.5993 24.31 17.9787 24.73 17.26 25.01L16.63 24.044C17.246 23.8013 17.7827 23.456 18.24 23.008C18.7067 22.56 19.066 22.0467 19.318 21.468C19.57 20.8893 19.696 20.2873 19.696 19.662V18.416H20.914ZM38.6103 18.948V20.152C38.6103 21.1973 38.5823 22.1353 38.5263 22.966C38.4797 23.7967 38.3583 24.7673 38.1623 25.878L36.9303 25.738C37.1357 24.6927 37.2617 23.7593 37.3083 22.938C37.3643 22.1073 37.3923 21.1787 37.3923 20.152V19.942H29.9443V18.948H38.6103ZM33.0523 27.348V22.966H34.2563V27.348H39.9123V28.356H28.7683V27.348H33.0523ZM50.5107 17.744V22.77H52.4987V23.778H50.5107V30.064H49.2927V17.744H50.5107ZM43.9867 19.69V17.898H45.2187V19.69H48.2007V20.67H40.9347V19.69H43.9867ZM44.6167 21.65C45.1953 21.65 45.7133 21.7713 46.1707 22.014C46.628 22.2567 46.9873 22.5927 47.2487 23.022C47.51 23.4513 47.6407 23.9413 47.6407 24.492C47.6407 25.0427 47.51 25.5373 47.2487 25.976C46.9873 26.4053 46.628 26.7413 46.1707 26.984C45.7133 27.2173 45.1953 27.334 44.6167 27.334C44.0473 27.334 43.534 27.2127 43.0767 26.97C42.6193 26.7273 42.26 26.3913 41.9987 25.962C41.7373 25.5327 41.6067 25.0427 41.6067 24.492C41.6067 23.9413 41.7373 23.4513 41.9987 23.022C42.26 22.5927 42.6193 22.2567 43.0767 22.014C43.534 21.7713 44.0473 21.65 44.6167 21.65ZM44.6167 22.644C44.0753 22.644 43.632 22.8167 43.2867 23.162C42.9413 23.5073 42.7687 23.9507 42.7687 24.492C42.7687 25.0333 42.9413 25.4767 43.2867 25.822C43.632 26.158 44.0753 26.326 44.6167 26.326C45.158 26.326 45.6013 26.158 45.9467 25.822C46.292 25.4767 46.4647 25.0333 46.4647 24.492C46.4647 23.9507 46.292 23.5073 45.9467 23.162C45.6013 22.8167 45.158 22.644 44.6167 22.644ZM63.363 17.73V30.05H62.145V17.73H63.363ZM59.723 19.046C59.723 23.022 57.819 25.934 54.011 27.782L53.367 26.816C56.5403 25.2947 58.2483 23.036 58.491 20.04H53.941V19.046H59.723Z" fill="#847B7F"/>
</svg>
