<svg width="96" height="36" viewBox="0 0 96 36" fill="none" xmlns="http://www.w3.org/2000/svg">
<rect width="96" height="36" rx="4" fill="white"/>
<path d="M17.422 11.744H18.626V20.746H17.422V11.744ZM8.63 18.044C10.506 17.316 11.696 15.538 11.696 13.662V12.416H12.914V13.662C12.914 15.482 14.09 17.148 15.952 17.82L15.322 18.786C13.922 18.254 12.858 17.176 12.312 15.804C11.78 17.26 10.716 18.436 9.26 19.01L8.63 18.044ZM10.688 23.784V19.92H11.906V22.804H19.004V23.784H10.688ZM21.9443 12.948H30.6103V14.152C30.6103 15.678 30.6103 17.372 30.1623 19.878L28.9303 19.738C29.3923 17.372 29.3923 15.636 29.3923 14.152V13.942H21.9443V12.948ZM20.7683 22.356V21.348H25.0523V16.966H26.2563V21.348H31.9123V22.356H20.7683ZM41.2927 11.744H42.5107V16.77H44.4987V17.778H42.5107V24.064H41.2927V11.744ZM32.9347 14.67V13.69H35.9867V11.898H37.2187V13.69H40.2007V14.67H32.9347ZM33.6067 18.492C33.6067 16.826 34.8807 15.65 36.6167 15.65C38.3667 15.65 39.6407 16.826 39.6407 18.492C39.6407 20.172 38.3667 21.334 36.6167 21.334C34.8807 21.334 33.6067 20.172 33.6067 18.492ZM34.7687 18.492C34.7687 19.584 35.5387 20.326 36.6167 20.326C37.6947 20.326 38.4647 19.584 38.4647 18.492C38.4647 17.414 37.6947 16.644 36.6167 16.644C35.5387 16.644 34.7687 17.414 34.7687 18.492ZM54.145 11.73H55.363V24.05H54.145V11.73ZM45.367 20.816C48.643 19.248 50.253 16.938 50.491 14.04H45.941V13.046H51.723C51.723 16.644 50.169 19.766 46.011 21.782L45.367 20.816Z" fill="#888787"/>
</svg>
