<svg width="112" height="52" viewBox="0 0 112 52" fill="none" xmlns="http://www.w3.org/2000/svg">
<g filter="url(#filter0_d_8968_36687)">
<rect x="8" y="6" width="96" height="36" rx="4" fill="white" shape-rendering="crispEdges"/>
<path d="M20.732 18.36V19.704C20.732 20.5347 21.0027 21.2953 21.544 21.986C22.0853 22.6767 22.804 23.1807 23.7 23.498L23.084 24.45C22.412 24.198 21.8193 23.834 21.306 23.358C20.802 22.882 20.4147 22.322 20.144 21.678C19.8827 22.378 19.4907 22.9847 18.968 23.498C18.4547 24.0113 17.8387 24.3987 17.12 24.66L16.49 23.694C17.4233 23.3673 18.1607 22.8353 18.702 22.098C19.2527 21.3513 19.528 20.5207 19.528 19.606V18.36H20.732ZM26.108 17.744V20.95H27.914V21.972H26.108V25.192H24.89V17.744H26.108ZM26.108 25.808V30.064H24.89V26.788H18.086V25.808H26.108ZM39.2263 17.73V30.05H38.0643V17.73H39.2263ZM35.6003 22.14V18.01H36.7343V29.434H35.6003V23.134H33.6263V22.14H35.6003ZM34.5503 19.144V20.152H32.4083V21.188C32.4083 22.2893 32.6323 23.3207 33.0803 24.282C33.5283 25.234 34.163 25.9527 34.9843 26.438L34.2563 27.32C33.687 26.9747 33.197 26.4987 32.7863 25.892C32.3757 25.276 32.0583 24.576 31.8343 23.792C31.6103 24.6413 31.2883 25.3973 30.8683 26.06C30.4483 26.7227 29.9397 27.2407 29.3423 27.614L28.6003 26.718C29.431 26.2047 30.075 25.444 30.5323 24.436C30.999 23.428 31.2323 22.3453 31.2323 21.188V20.152H28.9363V19.144H34.5503ZM50.5107 17.744V22.77H52.4987V23.778H50.5107V30.064H49.2927V17.744H50.5107ZM43.9867 19.69V17.898H45.2187V19.69H48.2007V20.67H40.9347V19.69H43.9867ZM44.6167 21.65C45.1953 21.65 45.7133 21.7713 46.1707 22.014C46.628 22.2567 46.9873 22.5927 47.2487 23.022C47.51 23.4513 47.6407 23.9413 47.6407 24.492C47.6407 25.0427 47.51 25.5373 47.2487 25.976C46.9873 26.4053 46.628 26.7413 46.1707 26.984C45.7133 27.2173 45.1953 27.334 44.6167 27.334C44.0473 27.334 43.534 27.2127 43.0767 26.97C42.6193 26.7273 42.26 26.3913 41.9987 25.962C41.7373 25.5327 41.6067 25.0427 41.6067 24.492C41.6067 23.9413 41.7373 23.4513 41.9987 23.022C42.26 22.5927 42.6193 22.2567 43.0767 22.014C43.534 21.7713 44.0473 21.65 44.6167 21.65ZM44.6167 22.644C44.0753 22.644 43.632 22.8167 43.2867 23.162C42.9413 23.5073 42.7687 23.9507 42.7687 24.492C42.7687 25.0333 42.9413 25.4767 43.2867 25.822C43.632 26.158 44.0753 26.326 44.6167 26.326C45.158 26.326 45.6013 26.158 45.9467 25.822C46.292 25.4767 46.4647 25.0333 46.4647 24.492C46.4647 23.9507 46.292 23.5073 45.9467 23.162C45.6013 22.8167 45.158 22.644 44.6167 22.644ZM63.363 17.73V30.05H62.145V17.73H63.363ZM59.723 19.046C59.723 23.022 57.819 25.934 54.011 27.782L53.367 26.816C56.5403 25.2947 58.2483 23.036 58.491 20.04H53.941V19.046H59.723Z" fill="#847B7F"/>
</g>
<defs>
<filter id="filter0_d_8968_36687" x="0" y="0" width="112" height="52" filterUnits="userSpaceOnUse" color-interpolation-filters="sRGB">
<feFlood flood-opacity="0" result="BackgroundImageFix"/>
<feColorMatrix in="SourceAlpha" type="matrix" values="0 0 0 0 0 0 0 0 0 0 0 0 0 0 0 0 0 0 127 0" result="hardAlpha"/>
<feOffset dy="2"/>
<feGaussianBlur stdDeviation="4"/>
<feComposite in2="hardAlpha" operator="out"/>
<feColorMatrix type="matrix" values="0 0 0 0 0.0745098 0 0 0 0 0.0666667 0 0 0 0 0.0705882 0 0 0 0.2 0"/>
<feBlend mode="normal" in2="BackgroundImageFix" result="effect1_dropShadow_8968_36687"/>
<feBlend mode="normal" in="SourceGraphic" in2="effect1_dropShadow_8968_36687" result="shape"/>
</filter>
</defs>
</svg>
