<svg width="96" height="36" viewBox="0 0 96 36" fill="none" xmlns="http://www.w3.org/2000/svg">
<rect width="96" height="36" rx="4" fill="white"/>
<path d="M12.732 12.36V13.704C12.732 14.5347 13.0027 15.2953 13.544 15.986C14.0853 16.6767 14.804 17.1807 15.7 17.498L15.084 18.45C14.412 18.198 13.8193 17.834 13.306 17.358C12.802 16.882 12.4147 16.322 12.144 15.678C11.8827 16.378 11.4907 16.9847 10.968 17.498C10.4547 18.0113 9.83867 18.3987 9.12 18.66L8.49 17.694C9.42333 17.3673 10.1607 16.8353 10.702 16.098C11.2527 15.3513 11.528 14.5207 11.528 13.606V12.36H12.732ZM18.108 11.744V14.95H19.914V15.972H18.108V19.192H16.89V11.744H18.108ZM18.108 19.808V24.064H16.89V20.788H10.086V19.808H18.108ZM31.2263 11.73V24.05H30.0643V11.73H31.2263ZM27.6003 16.14V12.01H28.7343V23.434H27.6003V17.134H25.6263V16.14H27.6003ZM26.5503 13.144V14.152H24.4083V15.188C24.4083 16.2893 24.6323 17.3207 25.0803 18.282C25.5283 19.234 26.163 19.9527 26.9843 20.438L26.2563 21.32C25.687 20.9747 25.197 20.4987 24.7863 19.892C24.3757 19.276 24.0583 18.576 23.8343 17.792C23.6103 18.6413 23.2883 19.3973 22.8683 20.06C22.4483 20.7227 21.9397 21.2407 21.3423 21.614L20.6003 20.718C21.431 20.2047 22.075 19.444 22.5323 18.436C22.999 17.428 23.2323 16.3453 23.2323 15.188V14.152H20.9363V13.144H26.5503ZM42.5107 11.744V16.77H44.4987V17.778H42.5107V24.064H41.2927V11.744H42.5107ZM35.9867 13.69V11.898H37.2187V13.69H40.2007V14.67H32.9347V13.69H35.9867ZM36.6167 15.65C37.1953 15.65 37.7133 15.7713 38.1707 16.014C38.628 16.2567 38.9873 16.5927 39.2487 17.022C39.51 17.4513 39.6407 17.9413 39.6407 18.492C39.6407 19.0427 39.51 19.5373 39.2487 19.976C38.9873 20.4053 38.628 20.7413 38.1707 20.984C37.7133 21.2173 37.1953 21.334 36.6167 21.334C36.0473 21.334 35.534 21.2127 35.0767 20.97C34.6193 20.7273 34.26 20.3913 33.9987 19.962C33.7373 19.5327 33.6067 19.0427 33.6067 18.492C33.6067 17.9413 33.7373 17.4513 33.9987 17.022C34.26 16.5927 34.6193 16.2567 35.0767 16.014C35.534 15.7713 36.0473 15.65 36.6167 15.65ZM36.6167 16.644C36.0753 16.644 35.632 16.8167 35.2867 17.162C34.9413 17.5073 34.7687 17.9507 34.7687 18.492C34.7687 19.0333 34.9413 19.4767 35.2867 19.822C35.632 20.158 36.0753 20.326 36.6167 20.326C37.158 20.326 37.6013 20.158 37.9467 19.822C38.292 19.4767 38.4647 19.0333 38.4647 18.492C38.4647 17.9507 38.292 17.5073 37.9467 17.162C37.6013 16.8167 37.158 16.644 36.6167 16.644ZM55.363 11.73V24.05H54.145V11.73H55.363ZM51.723 13.046C51.723 17.022 49.819 19.934 46.011 21.782L45.367 20.816C48.5403 19.2947 50.2483 17.036 50.491 14.04H45.941V13.046H51.723Z" fill="#888787"/>
</svg>
