<svg width="24" height="24" viewBox="0 0 24 24" fill="currentColor" xmlns="http://www.w3.org/2000/svg">
<path d="M4.80078 13.5927C4.80078 12.1932 5.1131 10.933 5.73774 9.81214C6.36238 8.69142 7.07006 7.72455 7.86078 6.91153C8.6515 6.09867 9.40998 5.4452 10.1362 4.95113C10.8623 4.45705 11.3238 4.14001 11.5208 4V6.28361C11.5208 7.01499 11.77 7.59339 12.2684 8.01881C12.7669 8.44406 13.3257 8.65669 13.9448 8.65669C14.2352 8.65669 14.5121 8.6044 14.7757 8.49983C15.039 8.3951 15.287 8.23135 15.5197 8.0086L15.9423 7.58714C16.9282 8.22724 17.7177 9.0757 18.3109 10.1325C18.9041 11.1895 19.2008 12.3429 19.2008 13.5927C19.2008 15.0153 18.8198 16.294 18.0579 17.4288C17.2961 18.5636 16.3091 19.4085 15.0968 19.9635C15.4057 19.6263 15.6469 19.243 15.8204 18.8135C15.994 18.3839 16.0808 17.9251 16.0808 17.4371C16.0808 16.9077 15.9793 16.4033 15.7762 15.9238C15.573 15.4442 15.2813 15.0165 14.9009 14.6406L12.0008 11.835L9.12462 14.6406C8.73438 15.0263 8.43622 15.455 8.23014 15.9266C8.0239 16.3981 7.92078 16.9016 7.92078 17.4371C7.92078 17.9251 8.00758 18.3839 8.18118 18.8135C8.35462 19.243 8.59582 19.6263 8.90478 19.9635C7.69246 19.4085 6.70542 18.5636 5.94366 17.4288C5.18174 16.294 4.80078 15.0153 4.80078 13.5927ZM12.0008 13.8264L13.8747 15.6409C14.1221 15.8855 14.3116 16.1587 14.4433 16.4606C14.5749 16.7623 14.6408 17.0878 14.6408 17.4371C14.6408 18.1454 14.3838 18.7495 13.8699 19.2496C13.3561 19.7499 12.7331 20 12.0008 20C11.2685 20 10.6454 19.7499 10.1317 19.2496C9.61774 18.7495 9.36078 18.1454 9.36078 17.4371C9.36078 17.1036 9.4251 16.7835 9.55374 16.4769C9.68238 16.1702 9.87342 15.8915 10.1269 15.6409L12.0008 13.8264Z" fill="white"/>
</svg>
