<svg width="32" height="32" viewBox="0 0 32 32" fill="none" xmlns="http://www.w3.org/2000/svg">
<path d="M8.41033 28.6669C7.73678 28.6669 7.16667 28.4336 6.7 27.9669C6.23333 27.5002 6 26.9301 6 26.2566V13.7439C6 13.0704 6.23333 12.5002 6.7 12.0336C7.16667 11.5669 7.73678 11.3336 8.41033 11.3336H11.8203V13.3336H8.41033C8.30767 13.3336 8.21367 13.3764 8.12833 13.4619C8.04278 13.5472 8 13.6412 8 13.7439V26.2566C8 26.3592 8.04278 26.4533 8.12833 26.5386C8.21367 26.6241 8.30767 26.6669 8.41033 26.6669H23.5897C23.6923 26.6669 23.7863 26.6241 23.8717 26.5386C23.9572 26.4533 24 26.3592 24 26.2566V13.7439C24 13.6412 23.9572 13.5472 23.8717 13.4619C23.7863 13.3764 23.6923 13.3336 23.5897 13.3336H20.1797V11.3336H23.5897C24.2632 11.3336 24.8333 11.5669 25.3 12.0336C25.7667 12.5002 26 13.0704 26 13.7439V26.2566C26 26.9301 25.7667 27.5002 25.3 27.9669C24.8333 28.4336 24.2632 28.6669 23.5897 28.6669H8.41033ZM15 21.0002V6.29258L12.5333 8.75925L11.1283 7.33358L16 2.46191L20.8717 7.33358L19.4667 8.75925L17 6.29258V21.0002H15Z" fill="#FF4093"/>
</svg>
