<svg width="120" height="116" viewBox="0 0 120 116" fill="none" xmlns="http://www.w3.org/2000/svg">
<path d="M89.6234 23.04C87.8288 23.04 86.3691 21.5998 86.3333 19.815V15.2831C86.3333 14.116 85.3873 13.1667 84.2169 13.1667H76.46C74.6426 13.1667 73.1667 11.6939 73.1667 9.87337V2.11642C73.1667 0.9493 72.2206 0 71.0502 0H48.9498C47.7826 0 46.8333 0.946049 46.8333 2.11642V9.87337C46.8333 11.6907 45.3606 13.1667 43.54 13.1667H35.7831C34.616 13.1667 33.6667 14.1127 33.6667 15.2831V19.8183C33.6667 19.7955 33.6667 19.7728 33.6667 19.75C33.6667 21.5673 32.194 23.0433 30.3766 23.0433H22.6164C21.4493 23.0433 20.5 23.9893 20.5 25.1597V47.2602C20.5 48.4273 21.446 49.3766 22.6164 49.3766H30.3766C32.194 49.3766 33.6667 50.8493 33.6667 52.6667C33.6667 52.5951 33.6667 52.5269 33.6732 52.4553V57.1303C33.6732 58.2975 34.6192 59.2467 35.7896 59.2467H43.5465C45.3639 59.2467 46.8398 60.7195 46.8398 62.54V70.297C46.8398 71.4641 47.7859 72.4134 48.9563 72.4134H71.0568C72.2239 72.4134 73.1732 71.4674 73.1732 70.297V62.54C73.1732 60.7227 74.6459 59.2467 76.4665 59.2467H84.2234C85.3905 59.2467 86.3398 58.3007 86.3398 57.1303V52.4553C86.4471 50.7356 87.8776 49.3734 89.6234 49.3734H97.3836C98.5507 49.3734 99.5 48.4273 99.5 47.257V25.1565C99.5 23.9893 98.5539 23.04 97.3836 23.04H89.6234ZM73.1732 49.3701V55.9535C73.1732 57.7708 71.7005 59.2435 69.8799 59.2435H50.1299C48.3126 59.2435 46.8398 57.7708 46.8398 55.9535V49.3701H36.9275C35.1231 49.3539 33.6667 47.8877 33.6667 46.0801V26.3301C33.6667 24.5128 35.1394 23.04 36.96 23.04C36.947 23.04 36.9372 23.04 36.9242 23.04H46.8333V16.4567C46.8333 14.6394 48.3061 13.1667 50.1266 13.1667H69.8766C71.694 13.1667 73.1667 14.6394 73.1667 16.4567V23.04H83.04C84.8574 23.04 86.3333 24.5128 86.3333 26.3333V46.0833C86.3333 47.9007 84.8606 49.3734 83.04 49.3734H73.1732V49.3701Z" fill="#010101"/>
<path d="M73.3141 36.9322C64.7411 38.6455 62.4426 40.944 60.7293 49.517H59.2761C57.5628 40.944 55.2644 38.6455 46.6914 36.9322V35.479C55.2644 33.7657 57.5628 31.4673 59.2761 22.8943H60.7293C62.4426 31.4673 64.7411 33.7657 73.3141 35.479V36.9322Z" fill="#010101"/>
<path d="M97.9339 114.098H92.6406L100.243 101.06L93.138 88.8752H98.6799L103.049 96.9395L107.49 88.8752H112.783L105.678 100.918L113.281 114.098H107.739L102.872 105.252L97.9339 114.098Z" fill="black"/>
<path d="M90.4369 114.098H85.6055V88.8752H90.4369V114.098Z" fill="black"/>
<path d="M70.2725 114.098H65.4766V88.8752H74.7131C79.2248 88.8752 82.6352 91.5752 82.6352 96.6553V97.1171C82.6352 100.847 80.8234 103.263 78.088 104.329L83.097 114.098H77.7683L73.221 104.897H70.2725V114.098ZM70.2725 92.8896V100.883H74.1802C76.1341 100.883 77.6617 99.7104 77.6617 97.1171V96.6553C77.6617 94.0264 76.2407 92.8896 74.1802 92.8896H70.2725Z" fill="black"/>
<path d="M52.346 114.56C45.916 114.56 41.9727 110.013 41.9727 102.623V100.35C41.9727 92.9605 45.916 88.4133 52.346 88.4133C58.8116 88.4133 62.7549 92.9605 62.7549 100.35V102.623C62.7549 110.013 58.8116 114.56 52.346 114.56ZM52.346 110.474C55.934 110.474 57.7103 107.81 57.7103 102.659V100.314C57.7103 95.1276 55.934 92.4632 52.346 92.4632C48.758 92.4632 47.0172 95.1276 47.0172 100.314V102.659C47.0172 107.81 48.7935 110.474 52.346 110.474Z" fill="black"/>
<path d="M35.5915 114.098H30.7601V92.8896H24.8984V88.8752H41.4176V92.8896H35.5915V114.098Z" fill="black"/>
<path d="M15.7796 114.56C10.3087 114.56 6.96938 111.505 6.7207 106.105H11.4811C11.7298 109.267 13.3639 110.652 15.9217 110.652C18.2309 110.652 19.5808 109.657 19.5808 107.455V107.135C19.5808 105.252 18.7282 104.293 14.5007 103.227C9.34957 101.948 7.39568 99.7814 7.39568 95.9447V95.6605C7.39568 91.2553 10.7706 88.4133 15.5309 88.4133C20.3624 88.4133 23.6662 91.0422 24.0215 96.2644H19.2256C19.0124 93.529 17.7335 92.2856 15.4954 92.2856C13.435 92.2856 12.1916 93.4224 12.1916 95.3763V95.6605C12.1916 97.5433 12.7955 98.2893 16.8809 99.3196C21.9255 100.527 24.3767 102.552 24.3767 106.673V106.957C24.3767 111.611 20.8242 114.56 15.7796 114.56Z" fill="black"/>
</svg>
