<svg width="24" height="24" viewBox="0 0 24 24" fill="none" xmlns="http://www.w3.org/2000/svg">
<path d="M12.25 19.269C11.8375 19.269 11.4844 19.1221 11.1908 18.8282C10.8969 18.5346 10.75 18.1815 10.75 17.769C10.75 17.3565 10.8969 17.0033 11.1908 16.7095C11.4844 16.4158 11.8375 16.269 12.25 16.269C12.6625 16.269 13.0156 16.4158 13.3092 16.7095C13.6031 17.0033 13.75 17.3565 13.75 17.769C13.75 18.1815 13.6031 18.5346 13.3092 18.8282C13.0156 19.1221 12.6625 19.269 12.25 19.269ZM12.25 13.4997C11.8375 13.4997 11.4844 13.3528 11.1908 13.059C10.8969 12.7653 10.75 12.4122 10.75 11.9997C10.75 11.5872 10.8969 11.2341 11.1908 10.9405C11.4844 10.6466 11.8375 10.4997 12.25 10.4997C12.6625 10.4997 13.0156 10.6466 13.3092 10.9405C13.6031 11.2341 13.75 11.5872 13.75 11.9997C13.75 12.4122 13.6031 12.7653 13.3092 13.059C13.0156 13.3528 12.6625 13.4997 12.25 13.4997ZM12.25 7.73047C11.8375 7.73047 11.4844 7.58364 11.1908 7.28997C10.8969 6.99614 10.75 6.64297 10.75 6.23047C10.75 5.81797 10.8969 5.46489 11.1908 5.17122C11.4844 4.87739 11.8375 4.73047 12.25 4.73047C12.6625 4.73047 13.0156 4.87739 13.3092 5.17122C13.6031 5.46489 13.75 5.81797 13.75 6.23047C13.75 6.64297 13.6031 6.99614 13.3092 7.28997C13.0156 7.58364 12.6625 7.73047 12.25 7.73047Z" fill="#847B7F"/>
</svg>
