<svg width="24" height="24" viewBox="0 0 24 24" fill="none" xmlns="http://www.w3.org/2000/svg">
<path d="M11.0504 4.76732C11.2701 3.74423 12.7299 3.74423 12.9496 4.76732L13.9285 9.32586C14.0087 9.69946 14.3005 9.9913 14.6741 10.0715L19.2327 11.0504C20.2558 11.2701 20.2558 12.7299 19.2327 12.9496L14.6741 13.9285C14.3005 14.0087 14.0087 14.3005 13.9285 14.6741L12.9496 19.2327C12.7299 20.2558 11.2701 20.2558 11.0504 19.2327L10.0715 14.6741C9.9913 14.3005 9.69946 14.0087 9.32586 13.9285L4.76732 12.9496C3.74423 12.7299 3.74423 11.2701 4.76732 11.0504L9.32586 10.0715C9.69946 9.9913 9.9913 9.69946 10.0715 9.32586L11.0504 4.76732Z" fill="#FF4093"/>
</svg>
