<svg width="33" height="33" viewBox="0 0 33 33" fill="none" xmlns="http://www.w3.org/2000/svg">
<path d="M15.2195 3.43872C15.6315 1.52042 18.3685 1.52043 18.7805 3.43872L20.6159 11.986C20.7663 12.6865 21.3135 13.2337 22.014 13.3841L30.5613 15.2195C32.4796 15.6315 32.4796 18.3685 30.5613 18.7805L22.014 20.6159C21.3135 20.7663 20.7663 21.3135 20.6159 22.014L18.7805 30.5613C18.3685 32.4796 15.6315 32.4796 15.2195 30.5613L13.3841 22.014C13.2337 21.3135 12.6865 20.7663 11.986 20.6159L3.43872 18.7805C1.52042 18.3685 1.52043 15.6315 3.43872 15.2195L11.986 13.3841C12.6865 13.2337 13.2337 12.6865 13.3841 11.986L15.2195 3.43872Z" fill="#E1E0E0"/>
</svg>
