<svg width="9" height="10" viewBox="0 0 9 10" fill="none" xmlns="http://www.w3.org/2000/svg">
<path d="M3.96586 0.479573C4.08944 -0.159859 4.91056 -0.159857 5.03414 0.479575L5.58477 3.32866C5.62989 3.56216 5.79405 3.74457 6.00421 3.79471L8.56838 4.40651C9.14387 4.54382 9.14387 5.45618 8.56838 5.59349L6.0042 6.20529C5.79405 6.25544 5.62989 6.43784 5.58477 6.67134L5.03414 9.52043C4.91056 10.1599 4.08944 10.1599 3.96586 9.52043L3.41524 6.67134C3.37011 6.43784 3.20595 6.25544 2.9958 6.20529L0.431616 5.59349C-0.143873 5.45618 -0.143871 4.54382 0.431617 4.40651L2.9958 3.79471C3.20595 3.74457 3.37011 3.56216 3.41524 3.32866L3.96586 0.479573Z" fill="#FF4093"/>
</svg>
