<svg width="24" height="24" viewBox="0 0 24 24" fill="none" xmlns="http://www.w3.org/2000/svg">
<path d="M19.4996 8.83292C19.0453 8.83292 18.6757 8.46831 18.6667 8.01646V6.86914C18.6667 6.57366 18.4272 6.33333 18.1309 6.33333H16.1671C15.707 6.33333 15.3333 5.96049 15.3333 5.49959V3.5358C15.3333 3.24033 15.0938 3 14.7975 3H9.20247C8.907 3 8.66667 3.23951 8.66667 3.5358V5.49959C8.66667 5.95967 8.29383 6.33333 7.83292 6.33333H5.86914C5.57366 6.33333 5.33333 6.57284 5.33333 6.86914V8.01728C5.33333 8.01152 5.33333 8.00576 5.33333 8C5.33333 8.46008 4.96049 8.83375 4.50041 8.83375H2.5358C2.24033 8.83375 2 9.07325 2 9.36955V14.9646C2 15.2601 2.23951 15.5004 2.5358 15.5004H4.50041C4.96049 15.5004 5.33333 15.8733 5.33333 16.3333C5.33333 16.3152 5.33333 16.2979 5.33498 16.2798V17.4634C5.33498 17.7588 5.57449 17.9992 5.87078 17.9992H7.83457C8.29465 17.9992 8.66831 18.372 8.66831 18.8329V20.7967C8.66831 21.0922 8.90782 21.3325 9.20412 21.3325H14.7992C15.0947 21.3325 15.335 21.093 15.335 20.7967V18.8329C15.335 18.3728 15.7078 17.9992 16.1687 17.9992H18.1325C18.428 17.9992 18.6683 17.7597 18.6683 17.4634V16.2798C18.6955 15.8444 19.0576 15.4996 19.4996 15.4996H21.4642C21.7597 15.4996 22 15.2601 22 14.9638V9.36872C22 9.07325 21.7605 8.83292 21.4642 8.83292H19.4996ZM15.335 15.4988V17.1654C15.335 17.6255 14.9621 17.9984 14.5012 17.9984H9.50124C9.04115 17.9984 8.66831 17.6255 8.66831 17.1654V15.4988H6.15885C5.70206 15.4947 5.33333 15.1235 5.33333 14.6658V9.66584C5.33333 9.20576 5.70617 8.83292 6.16708 8.83292C6.16379 8.83292 6.16132 8.83292 6.15802 8.83292H8.66667V7.16625C8.66667 6.70617 9.03951 6.33333 9.50041 6.33333H14.5004C14.9605 6.33333 15.3333 6.70617 15.3333 7.16625V8.83292H17.8329C18.293 8.83292 18.6667 9.20576 18.6667 9.66667V14.6667C18.6667 15.1267 18.2938 15.4996 17.8329 15.4996H15.335V15.4988Z" fill="#FF4093"/>
<path d="M15.3703 12.3501C13.1999 12.7838 12.618 13.3657 12.1843 15.5361H11.8164C11.3826 13.3657 10.8007 12.7838 8.63037 12.3501V11.9822C10.8007 11.5484 11.3826 10.9665 11.8164 8.79614H12.1843C12.618 10.9665 13.1999 11.5484 15.3703 11.9822V12.3501Z" fill="#FF4093"/>
</svg>
