<svg width="24" height="24" viewBox="0 0 24 24" fill="none" xmlns="http://www.w3.org/2000/svg">
<path d="M4.7998 13.5927C4.7998 12.1932 5.11212 10.933 5.73676 9.81214C6.3614 8.69142 7.06908 7.72455 7.8598 6.91153C8.65052 6.09867 9.409 5.4452 10.1352 4.95113C10.8613 4.45705 11.3228 4.14001 11.5198 4V6.28361C11.5198 7.01499 11.769 7.59339 12.2674 8.01881C12.766 8.44406 13.3248 8.65669 13.9438 8.65669C14.2342 8.65669 14.5112 8.6044 14.7747 8.49983C15.038 8.3951 15.286 8.23135 15.5187 8.0086L15.9413 7.58714C16.9272 8.22724 17.7168 9.0757 18.3099 10.1325C18.9032 11.1895 19.1998 12.3429 19.1998 13.5927C19.1998 15.0153 18.8188 16.294 18.0569 17.4288C17.2952 18.5636 16.3081 19.4085 15.0958 19.9635C15.4048 19.6263 15.646 19.243 15.8194 18.8135C15.993 18.3839 16.0798 17.9251 16.0798 17.4371C16.0798 16.9077 15.9783 16.4033 15.7752 15.9238C15.572 15.4442 15.2803 15.0165 14.9 14.6406L11.9998 11.835L9.12364 14.6406C8.7334 15.0263 8.43525 15.455 8.22917 15.9266C8.02293 16.3981 7.9198 16.9016 7.9198 17.4371C7.9198 17.9251 8.0066 18.3839 8.1802 18.8135C8.35364 19.243 8.59484 19.6263 8.9038 19.9635C7.69148 19.4085 6.70444 18.5636 5.94268 17.4288C5.18076 16.294 4.7998 15.0153 4.7998 13.5927ZM11.9998 13.8264L13.8737 15.6409C14.1211 15.8855 14.3106 16.1587 14.4423 16.4606C14.574 16.7623 14.6398 17.0878 14.6398 17.4371C14.6398 18.1454 14.3828 18.7495 13.8689 19.2496C13.3552 19.7499 12.7321 20 11.9998 20C11.2675 20 10.6444 19.7499 10.1307 19.2496C9.61676 18.7495 9.3598 18.1454 9.3598 17.4371C9.3598 17.1036 9.42412 16.7835 9.55276 16.4769C9.6814 16.1702 9.87245 15.8915 10.1259 15.6409L11.9998 13.8264Z" fill="#FF4093"/>
</svg>
