<svg width="24" height="24" viewBox="0 0 24 24" fill="none" xmlns="http://www.w3.org/2000/svg">
  <path
    d="M13.1011 21.5746H10.9005C10.9005 18.8624 9.49213 18.1179 4.34461 18.1179H0.214844V4.61914H2.41543V15.9173H4.34461C7.8307 15.9173 13.1011 15.9173 13.1011 21.5746Z"
    fill="#CDC4C8"
  />
  <path
    d="M13.1029 21.5746H10.9023C10.9023 15.9173 16.1709 15.9173 19.657 15.9173H21.5862V4.61914H23.7867V18.1179H19.657C14.5113 18.1179 13.1029 18.8606 13.1029 21.5746Z"
    fill="#CDC4C8"
  />
  <path
    d="M13.0929 8.08311H10.8923C10.8923 6.12826 10.1478 5.51393 9.50042 5.19668C8.42396 4.67038 6.75519 4.62636 5.13592 4.62636H2.42188V2.42578H5.13592C8.30476 2.42578 13.0929 2.42578 13.0929 8.08311Z"
    fill="#CDC4C8"
  />
  <path
    d="M13.0912 8.08518H10.8906C10.8906 5.71039 11.7745 4.07462 13.5148 3.22373C15.013 2.4902 16.9697 2.42969 18.8476 2.42969H21.5616V4.63027H18.8476C14.5986 4.63027 13.0912 5.15291 13.0912 8.08702V8.08518Z"
    fill="#CDC4C8"
  />
</svg>
