<svg width="24" height="24" viewBox="0 0 24 24" fill="none" xmlns="http://www.w3.org/2000/svg">
<g clip-path="url(#clip0_2639_33571)">
<path fill-rule="evenodd" clip-rule="evenodd" d="M12.6806 2.5C12.6806 7.19481 16.4302 10.9444 21.125 10.9444V13.0556C16.4302 13.0556 12.6806 16.8052 12.6806 21.5H10.5694L10.5581 21.0629C10.3338 16.5746 6.67316 13.0556 2.125 13.0556V10.9444C6.67316 10.9444 10.3338 7.42538 10.5581 2.93707L10.5694 2.5H12.6806ZM11.625 7.12836C10.5958 9.25234 8.87734 10.9708 6.75336 12C8.87706 13.0291 10.5958 14.747 11.625 16.8706C12.6541 14.7473 14.3723 13.0291 16.4956 12C14.372 10.9708 12.6541 9.25206 11.625 7.12836Z" fill="#302F2F"/>
</g>
<defs>
<clipPath id="clip0_2639_33571">
<rect width="19" height="19" fill="white" transform="translate(2.125 2.5)"/>
</clipPath>
</defs>
</svg>
