<svg width="36" height="36" viewBox="0 0 36 36" fill="none" xmlns="http://www.w3.org/2000/svg">
<path d="M18.9 3.3C18.6404 3.10527 18.3246 3 18 3C17.6754 3 17.3596 3.10527 17.1 3.3C16.4751 3.77877 15.8988 4.31786 15.3795 4.9095C14.595 5.793 13.5 7.2825 13.5 9C13.5 10.1935 13.9741 11.3381 14.818 12.182C15.6619 13.0259 16.8065 13.5 18 13.5H9C7.80653 13.5 6.66193 13.9741 5.81802 14.818C4.97411 15.6619 4.5 16.8065 4.5 18V21C4.5 22.854 6.6165 23.913 8.1 22.8L9.1005 22.05C9.36014 21.8553 9.67594 21.75 10.0005 21.75C10.3251 21.75 10.6409 21.8553 10.9005 22.05L11.2995 22.35C12.0784 22.9342 13.0258 23.25 13.9995 23.25C14.9732 23.25 15.9206 22.9342 16.6995 22.35L17.1 22.05C17.3596 21.8553 17.6754 21.75 18 21.75C18.3246 21.75 18.6404 21.8553 18.9 22.05L19.3005 22.35C20.0794 22.9342 21.0268 23.25 22.0005 23.25C22.9742 23.25 23.9216 22.9342 24.7005 22.35L25.0995 22.05C25.3591 21.8553 25.6749 21.75 25.9995 21.75C26.3241 21.75 26.6399 21.8553 26.8995 22.05L27.9 22.8C29.3835 23.913 31.5 22.854 31.5 21V18C31.5 16.8065 31.0259 15.6619 30.182 14.818C29.3381 13.9741 28.1935 13.5 27 13.5H18C19.1935 13.5 20.3381 13.0259 21.182 12.182C22.0259 11.3381 22.5 10.1935 22.5 9C22.5 7.2825 21.405 5.793 20.6205 4.9095C20.1015 4.3245 19.5255 3.7695 18.9 3.3ZM6 26.1225V30C6 30.7956 6.31607 31.5587 6.87868 32.1213C7.44129 32.6839 8.20435 33 9 33H27C27.7956 33 28.5587 32.6839 29.1213 32.1213C29.6839 31.5587 30 30.7956 30 30V26.1225C29.6509 26.2486 29.2758 26.2851 28.9089 26.2288C28.5421 26.1724 28.1952 26.025 27.9 25.8L26.8995 25.05C26.6399 24.8553 26.3241 24.75 25.9995 24.75C25.6749 24.75 25.3591 24.8553 25.0995 25.05L24.7005 25.35C23.9216 25.9342 22.9742 26.25 22.0005 26.25C21.0268 26.25 20.0794 25.9342 19.3005 25.35L18.9 25.05C18.6404 24.8553 18.3246 24.75 18 24.75C17.6754 24.75 17.3596 24.8553 17.1 25.05L16.6995 25.35C15.9206 25.9342 14.9732 26.25 13.9995 26.25C13.0258 26.25 12.0784 25.9342 11.2995 25.35L10.9005 25.05C10.6409 24.8553 10.3251 24.75 10.0005 24.75C9.67594 24.75 9.36014 24.8553 9.1005 25.05L8.1 25.8C7.80483 26.025 7.45795 26.1724 7.09109 26.2288C6.72422 26.2851 6.34909 26.2486 6 26.1225Z" fill="#B0A5AA"/>
</svg>
