<svg width="150" height="150" viewBox="0 0 150 150" fill="none" xmlns="http://www.w3.org/2000/svg">
<rect width="150" height="150" rx="20" fill="#100F0F"/>
<path d="M108.09 60.4709C106.114 60.4709 104.506 58.8848 104.467 56.9193V51.9284C104.467 50.6431 103.425 49.5977 102.136 49.5977H93.5936C91.5922 49.5977 89.9668 47.9758 89.9668 45.9709V37.4284C89.9668 36.1431 88.9249 35.0977 87.6361 35.0977H63.2975C62.0122 35.0977 60.9668 36.1395 60.9668 37.4284V45.9709C60.9668 47.9722 59.3449 49.5977 57.34 49.5977H48.7975C47.5122 49.5977 46.4668 50.6395 46.4668 51.9284V56.9228C46.4668 56.8978 46.4668 56.8727 46.4668 56.8477C46.4668 58.849 44.8449 60.4744 42.8436 60.4744H34.2975C33.0122 60.4744 31.9668 61.5163 31.9668 62.8052V87.1437C31.9668 88.429 33.0086 89.4744 34.2975 89.4744H42.8436C44.8449 89.4744 46.4668 91.0963 46.4668 93.0977C46.4668 93.0189 46.4668 92.9437 46.474 92.8649V98.0133C46.474 99.2986 47.5158 100.344 48.8047 100.344H57.3472C59.3485 100.344 60.974 101.966 60.974 103.971V112.513C60.974 113.799 62.0158 114.844 63.3047 114.844H87.6432C88.9285 114.844 89.974 113.802 89.974 112.513V103.971C89.974 101.97 91.5958 100.344 93.6007 100.344H102.143C103.429 100.344 104.474 99.3022 104.474 98.0133V92.8649C104.592 90.971 106.167 89.4709 108.09 89.4709H116.636C117.921 89.4709 118.967 88.429 118.967 87.1401V62.8016C118.967 61.5163 117.925 60.4709 116.636 60.4709H108.09ZM89.974 89.4673V96.7173C89.974 98.7186 88.3521 100.34 86.3472 100.34H64.5972C62.5958 100.34 60.974 98.7186 60.974 96.7173V89.4673H50.0578C48.0707 89.4494 46.4668 87.8347 46.4668 85.8441V64.0941C46.4668 62.0927 48.0886 60.4709 50.0936 60.4709C50.0793 60.4709 50.0685 60.4709 50.0542 60.4709H60.9668V53.2209C60.9668 51.2195 62.5886 49.5977 64.5936 49.5977H86.3436C88.3449 49.5977 89.9668 51.2195 89.9668 53.2209V60.4709H100.84C102.841 60.4709 104.467 62.0927 104.467 64.0977V85.8477C104.467 87.849 102.845 89.4709 100.84 89.4709H89.974V89.4673Z" fill="white"/>
<path d="M90.1292 75.7699C80.6881 77.6567 78.1568 80.188 76.2701 89.6291H74.6697C72.7829 80.188 70.2517 77.6567 60.8105 75.7699V74.1696C70.2517 72.2828 72.7829 69.7515 74.6697 60.3104H76.2701C78.1568 69.7515 80.6881 72.2828 90.1292 74.1696V75.7699Z" fill="white"/>
</svg>
