<svg width="24" height="24" viewBox="0 0 24 24" fill="none" xmlns="http://www.w3.org/2000/svg">
<path d="M19.1045 15.9299H21.1045V17.9299H19.1045V19.9299H17.1045V17.9299H15.1045V15.9299H17.1045V13.9299H19.1045V15.9299Z" fill="#484245"/>
<path d="M21.5943 11.59C21.5943 12.3 21.5143 13.02 21.3543 13.71L19.4043 13.27C19.5243 12.72 19.5943 12.16 19.5943 11.59C19.5943 7.4 16.1843 4 11.9943 4C7.8043 4 4.4043 7.4 4.4043 11.59C4.4043 13.36 5.0243 15.08 6.1643 16.43L6.6943 17.06L4.9743 19.18H11.9943C13.0143 19.18 13.9943 18.99 14.9243 18.6L15.6943 20.44C14.5243 20.93 13.2843 21.18 11.9943 21.18H2.8743V18.59L4.1243 17.06C3.0143 15.46 2.4043 13.55 2.4043 11.59C2.4043 6.3 6.7043 2 11.9943 2C17.2843 2 21.5943 6.3 21.5943 11.59Z" fill="#484245"/>
<path d="M9.2541 10.6799H7.4541V12.8799H9.2541V10.6799Z" fill="#484245"/>
<path d="M12.8947 10.6799H11.0947V12.8799H12.8947V10.6799Z" fill="#484245"/>
<path d="M16.5441 10.6799H14.7441V12.8799H16.5441V10.6799Z" fill="#484245"/>
</svg>
