<svg width="360" height="48" viewBox="0 0 360 48" fill="none" xmlns="http://www.w3.org/2000/svg">
<path d="M0 8C0 3.58172 3.58172 0 8 0H352C356.418 0 360 3.58172 360 8V40C360 44.4183 356.418 48 352 48H8C3.58172 48 0 44.4183 0 40V8Z" fill="#131112"/>
<path d="M134.969 18.8477C135.141 18.8477 135.434 18.875 135.848 18.9297C136.262 18.9844 136.715 19.1406 137.207 19.3984C137.707 19.6484 138.16 20.0664 138.566 20.6523C138.543 20.6758 138.43 20.7617 138.227 20.9102C138.023 21.0508 137.797 21.2617 137.547 21.543C137.297 21.8164 137.078 22.168 136.891 22.5977C136.703 23.0195 136.609 23.5234 136.609 24.1094C136.609 24.7812 136.727 25.3516 136.961 25.8203C137.203 26.2891 137.48 26.668 137.793 26.957C138.113 27.2383 138.395 27.4453 138.637 27.5781C138.887 27.7109 139.02 27.7812 139.035 27.7891C139.027 27.8203 138.926 28.0977 138.73 28.6211C138.543 29.1445 138.23 29.7266 137.793 30.3672C137.41 30.9219 136.996 31.4336 136.551 31.9023C136.113 32.3711 135.586 32.6055 134.969 32.6055C134.555 32.6055 134.215 32.5469 133.949 32.4297C133.684 32.3047 133.41 32.1836 133.129 32.0664C132.848 31.9414 132.469 31.8789 131.992 31.8789C131.531 31.8789 131.145 31.9414 130.832 32.0664C130.527 32.1914 130.234 32.3164 129.953 32.4414C129.68 32.5664 129.355 32.6289 128.98 32.6289C128.41 32.6289 127.91 32.4023 127.48 31.9492C127.051 31.4961 126.609 30.9531 126.156 30.3203C125.633 29.5703 125.184 28.6562 124.809 27.5781C124.441 26.4922 124.258 25.3984 124.258 24.2969C124.258 23.1172 124.48 22.1289 124.926 21.332C125.371 20.5273 125.941 19.9219 126.637 19.5156C127.34 19.1016 128.066 18.8945 128.816 18.8945C129.215 18.8945 129.59 18.9609 129.941 19.0938C130.293 19.2188 130.621 19.3477 130.926 19.4805C131.238 19.6133 131.52 19.6797 131.77 19.6797C132.012 19.6797 132.293 19.6094 132.613 19.4688C132.934 19.3281 133.293 19.1914 133.691 19.0586C134.09 18.918 134.516 18.8477 134.969 18.8477ZM134.324 17.3594C134.02 17.7266 133.637 18.0352 133.176 18.2852C132.715 18.5273 132.277 18.6484 131.863 18.6484C131.777 18.6484 131.695 18.6406 131.617 18.625C131.609 18.6016 131.602 18.5586 131.594 18.4961C131.586 18.4336 131.582 18.3672 131.582 18.2969C131.582 17.8281 131.684 17.375 131.887 16.9375C132.09 16.4922 132.32 16.125 132.578 15.8359C132.906 15.4453 133.32 15.1211 133.82 14.8633C134.32 14.6055 134.797 14.4688 135.25 14.4531C135.273 14.5547 135.285 14.6758 135.285 14.8164C135.285 15.2852 135.195 15.7422 135.016 16.1875C134.836 16.625 134.605 17.0156 134.324 17.3594Z" fill="white"/>
<path d="M150.484 30H148.312L152.297 18.6875H154.797L158.797 30H156.625L155.688 27.2031H151.422L150.484 30ZM151.969 25.5625H155.141L153.594 21H153.5L151.969 25.5625ZM160.047 33.1875V21.5156H162V22.9062H162.125C162.438 22.2969 163.062 21.4062 164.562 21.4062C166.516 21.4062 168.062 22.9375 168.062 25.7656C168.062 28.5625 166.562 30.1562 164.562 30.1562C163.094 30.1562 162.438 29.2812 162.125 28.6562H162.047V33.1875H160.047ZM162 25.75C162 27.4062 162.719 28.5156 164.016 28.5156C165.328 28.5156 166.031 27.3594 166.031 25.75C166.031 24.1719 165.344 23.0312 164.016 23.0312C162.719 23.0312 162 24.1094 162 25.75ZM169.625 33.1875V21.5156H171.578V22.9062H171.703C172.016 22.2969 172.641 21.4062 174.141 21.4062C176.094 21.4062 177.641 22.9375 177.641 25.7656C177.641 28.5625 176.141 30.1562 174.141 30.1562C172.672 30.1562 172.016 29.2812 171.703 28.6562H171.625V33.1875H169.625ZM171.578 25.75C171.578 27.4062 172.297 28.5156 173.594 28.5156C174.906 28.5156 175.609 27.3594 175.609 25.75C175.609 24.1719 174.922 23.0312 173.594 23.0312C172.297 23.0312 171.578 24.1094 171.578 25.75ZM181.203 18.6875V30H179.203V18.6875H181.203ZM186.875 30.1719C184.312 30.1719 182.75 28.4688 182.75 25.8125C182.75 23.1875 184.344 21.4062 186.766 21.4062C188.844 21.4062 190.641 22.7031 190.641 25.6875V26.3125H184.719C184.742 27.7578 185.594 28.6094 186.891 28.6094C187.766 28.6094 188.359 28.2344 188.609 27.7344H190.562C190.203 29.2031 188.844 30.1719 186.875 30.1719ZM184.734 24.9531H188.734C188.719 23.7969 187.953 22.9531 186.797 22.9531C185.594 22.9531 184.797 23.8672 184.734 24.9531ZM208.406 28.3125V29.75H195.5V28.3125H201.062V26.0156H197.031V21.3906H205.156V19.6406H197V18.2344H206.875V22.7656H198.766V24.5938H207.203V26.0156H202.781V28.3125H208.406ZM220.562 18.6406V20.2344C220.562 22.125 220.562 24.0781 220.047 27.0469L218.281 26.8906C218.828 24.1094 218.828 22.0625 218.828 20.2344V20.0469H210.688V18.6406H220.562ZM222.203 28.0312V29.4531H209.328V28.0312H222.203ZM234.922 17.2812V27.4844H233.172V17.2812H234.922ZM235.312 29.7031V31.1094H225.578V26.4531H227.328V29.7031H235.312ZM227.219 18.2031C229.359 18.2031 231.016 19.6875 231.016 21.7344C231.016 23.8281 229.359 25.2812 227.219 25.2812C225.062 25.2812 223.406 23.8281 223.406 21.7344C223.406 19.6875 225.062 18.2031 227.219 18.2031ZM227.219 19.7188C226.016 19.7188 225.094 20.5156 225.109 21.7344C225.094 22.9844 226.016 23.7656 227.219 23.7656C228.391 23.7656 229.312 22.9844 229.312 21.7344C229.312 20.5156 228.391 19.7188 227.219 19.7188Z" fill="white"/>
</svg>
