<svg width="360" height="48" viewBox="0 0 360 48" fill="none" xmlns="http://www.w3.org/2000/svg">
<path d="M0 8C0 3.58172 3.58172 0 8 0H352C356.418 0 360 3.58172 360 8V40C360 44.4183 356.418 48 352 48H8C3.58172 48 0 44.4183 0 40V8Z" fill="#03A94D"/>
<path fill-rule="evenodd" clip-rule="evenodd" d="M138.848 24.5649L132.917 16H128V32H133.152V23.4381L139.083 32H144V16H138.848V24.5649Z" fill="white"/>
<path d="M154.622 18.3799V25.6602C155.918 25.6455 157.112 25.5503 158.46 25.2646L158.694 26.6416C157.01 27.0078 155.56 27.0664 153.89 27.0664H152.996V18.3799H154.622ZM163.865 17.0615V30.3037H162.312V17.0615H163.865ZM161.023 17.3398V29.6738H159.485V22.6572H156.717V21.3389H159.485V17.3398H161.023ZM176.119 17.0615V30.3184H174.478V17.0615H176.119ZM168.985 18.0283C170.977 18.0283 172.428 19.8447 172.442 22.7012C172.428 25.5869 170.977 27.3887 168.985 27.3887C166.978 27.3887 165.528 25.5869 165.528 22.7012C165.528 19.8447 166.978 18.0283 168.985 18.0283ZM168.985 19.4932C167.857 19.4932 167.096 20.6797 167.096 22.7012C167.096 24.7373 167.857 25.9238 168.985 25.9238C170.098 25.9238 170.86 24.7373 170.86 22.7012C170.86 20.6797 170.098 19.4932 168.985 19.4932ZM188.871 17.0615V30.3184H187.259V23.1406H184.564V27.1104H178.265V18.0869H179.906V21.3828H182.967V18.0869H184.564V21.8076H187.259V17.0615H188.871ZM179.906 25.8066H182.967V22.6572H179.906V25.8066ZM205.79 27.418V28.7656H193.691V27.418H198.905V25.2646H195.126V20.9287H202.743V19.2881H195.097V17.9697H204.355V22.2178H196.752V23.9316H204.662V25.2646H200.517V27.418H205.79ZM216.887 18.3506V19.8447C216.887 21.6172 216.887 23.4482 216.403 26.2314L214.748 26.085C215.261 23.4775 215.261 21.5586 215.261 19.8447V19.6689H207.629V18.3506H216.887ZM218.425 27.1543V28.4873H206.354V27.1543H218.425ZM230.049 17.0762V26.6416H228.408V17.0762H230.049ZM230.415 28.7217V30.04H221.289V25.6748H222.929V28.7217H230.415ZM222.827 17.9404C224.834 17.9404 226.387 19.332 226.387 21.251C226.387 23.2139 224.834 24.5762 222.827 24.5762C220.805 24.5762 219.253 23.2139 219.253 21.251C219.253 19.332 220.805 17.9404 222.827 17.9404ZM222.827 19.3613C221.699 19.3613 220.835 20.1084 220.849 21.251C220.835 22.4229 221.699 23.1553 222.827 23.1553C223.926 23.1553 224.79 22.4229 224.79 21.251C224.79 20.1084 223.926 19.3613 222.827 19.3613Z" fill="white"/>
</svg>
