<svg width="361" height="56" viewBox="0 0 361 56" fill="none" xmlns="http://www.w3.org/2000/svg">
<rect x="0.5" y="0.5" width="360" height="55" rx="7.5" fill="#FFEEF6"/>
<rect x="0.5" y="0.5" width="360" height="55" rx="7.5" stroke="#FDBCD9"/>
<g clip-path="url(#clip0_1994_33968)">
<rect x="12" y="16" width="24" height="24" rx="12" fill="white"/>
<g clip-path="url(#clip1_1994_33968)">
<rect width="24" height="24" transform="translate(12 16)" fill="white"/>
<path d="M22.2073 33.3732L30.6995 24.8809L29.3684 23.5499L22.2073 30.7111L18.6073 27.1111L17.2762 28.4421L22.2073 33.3732ZM24.0022 40C22.3424 40 20.7823 39.6851 19.3219 39.0552C17.8615 38.4253 16.5912 37.5704 15.5109 36.4906C14.4307 35.4108 13.5755 34.1411 12.9452 32.6813C12.3151 31.2215 12 29.6618 12 28.0022C12 26.3424 12.3149 24.7823 12.9448 23.3219C13.5747 21.8615 14.4296 20.5912 15.5094 19.5109C16.5892 18.4307 17.8589 17.5755 19.3187 16.9452C20.7785 16.3151 22.3382 16 23.9978 16C25.6576 16 27.2177 16.3149 28.6781 16.9448C30.1385 17.5747 31.4088 18.4296 32.4891 19.5094C33.5693 20.5892 34.4245 21.8589 35.0548 23.3187C35.6849 24.7785 36 26.3382 36 27.9978C36 29.6576 35.6851 31.2177 35.0552 32.6781C34.4253 34.1385 33.5704 35.4088 32.4906 36.4891C31.4108 37.5693 30.1411 38.4245 28.6813 39.0548C27.2215 39.6849 25.6618 40 24.0022 40Z" fill="#FF4093"/>
</g>
</g>
<path d="M59.112 24.964H61.282V21.674H62.822V30.76H61.282V26.21H59.112V24.964ZM52.434 28.1C54.408 27.428 55.458 25.79 55.458 24.138V23.802H52.868V22.57H59.56V23.802H57.012V24.138C57.012 25.65 58.006 27.204 59.91 27.848L59.154 29.052C57.768 28.576 56.802 27.624 56.256 26.434C55.724 27.75 54.688 28.814 53.218 29.318L52.434 28.1ZM54.688 33.882V29.99H56.242V32.65H63.13V33.882H54.688ZM69.7663 26.462H71.3763V21.898H72.8043V33.532H71.3763V27.708H69.7663V26.462ZM64.5163 30.55C66.2523 29.528 67.0083 27.428 67.0083 25.468V25.09H64.9363V23.844H67.0083V22.08H68.4783V23.844H70.5363V25.09H68.4783V25.468C68.4783 27.386 69.2623 29.346 70.9843 30.27L70.1303 31.418C68.9963 30.802 68.2123 29.724 67.7643 28.408C67.3303 29.822 66.5463 31.04 65.3843 31.712L64.5163 30.55ZM73.8823 34.12V21.66H75.3523V34.12H73.8823ZM80.1892 27.638H85.0472V26.462H81.5752V22.22H90.0732V23.452H83.0872V25.23H90.1572V26.462H86.5732V27.638H91.4452V28.87H80.1892V27.638ZM81.4772 31.866C81.4772 30.41 83.1012 29.598 85.7892 29.598C88.4632 29.598 90.0872 30.41 90.0872 31.866C90.0872 33.322 88.4632 34.134 85.7892 34.134C83.1012 34.134 81.4772 33.322 81.4772 31.866ZM83.0312 31.866C83.0312 32.608 84.0112 32.958 85.7892 32.958C87.5672 32.958 88.5332 32.608 88.5332 31.866C88.5332 31.152 87.5672 30.774 85.7892 30.774C84.0112 30.774 83.0312 31.152 83.0312 31.866ZM96.4155 22.514C98.3615 22.514 99.8035 23.774 99.8035 25.538C99.8035 27.316 98.3615 28.562 96.4155 28.562C94.4555 28.562 93.0135 27.316 93.0135 25.538C93.0135 23.774 94.4555 22.514 96.4155 22.514ZM92.4535 30.284C94.6655 30.284 97.7735 30.27 100.42 29.864L100.532 30.984C97.8015 31.516 94.8195 31.544 92.6355 31.544L92.4535 30.284ZM94.5115 25.538C94.5115 26.574 95.3235 27.246 96.4155 27.246C97.4935 27.246 98.3055 26.574 98.3055 25.538C98.3055 24.488 97.4935 23.844 96.4155 23.844C95.3235 23.844 94.5115 24.488 94.5115 25.538ZM101.162 34.148V21.646H102.688V34.148H101.162Z" fill="#FF4093"/>
<defs>
<clipPath id="clip0_1994_33968">
<rect x="12" y="16" width="24" height="24" rx="12" fill="white"/>
</clipPath>
<clipPath id="clip1_1994_33968">
<rect width="24" height="24" fill="white" transform="translate(12 16)"/>
</clipPath>
</defs>
</svg>
