<svg width="361" height="56" viewBox="0 0 361 56" fill="none" xmlns="http://www.w3.org/2000/svg">
<rect x="0.5" y="0.5" width="360" height="55" rx="7.5" fill="#F8F7F7"/>
<rect x="0.5" y="0.5" width="360" height="55" rx="7.5" stroke="#CECDCD"/>
<g clip-path="url(#clip0_1994_33962)">
<g clip-path="url(#clip1_1994_33962)">
<path d="M22.2073 33.3732L30.6995 24.8809L29.3684 23.5499L22.2073 30.7111L18.6073 27.1111L17.2762 28.4421L22.2073 33.3732ZM24.0022 40C22.3424 40 20.7823 39.6851 19.3219 39.0552C17.8615 38.4253 16.5912 37.5704 15.5109 36.4906C14.4307 35.4108 13.5755 34.1411 12.9452 32.6813C12.3151 31.2215 12 29.6618 12 28.0022C12 26.3424 12.3149 24.7823 12.9448 23.3219C13.5747 21.8615 14.4296 20.5912 15.5094 19.5109C16.5892 18.4307 17.8589 17.5755 19.3187 16.9452C20.7785 16.3151 22.3382 16 23.9978 16C25.6576 16 27.2177 16.3149 28.6781 16.9448C30.1385 17.5747 31.4088 18.4296 32.4891 19.5094C33.5693 20.5892 34.4245 21.8589 35.0548 23.3187C35.6849 24.7785 36 26.3382 36 27.9978C36 29.6576 35.6851 31.2177 35.0552 32.6781C34.4253 34.1385 33.5704 35.4088 32.4906 36.4891C31.4108 37.5693 30.1411 38.4245 28.6813 39.0548C27.2215 39.6849 25.6618 40 24.0022 40Z" fill="#CECDCD"/>
</g>
</g>
<path d="M61.282 24.964V21.674H62.822V30.76H61.282V26.21H59.112V24.964H61.282ZM56.242 29.99V32.65H63.13V33.882H54.688V29.99H56.242ZM59.56 22.57V23.802H57.012V24.138C57.012 24.9313 57.264 25.6733 57.768 26.364C58.2813 27.0453 58.9953 27.54 59.91 27.848L59.154 29.052C58.482 28.8187 57.8987 28.478 57.404 28.03C56.9187 27.582 56.536 27.05 56.256 26.434C55.9853 27.106 55.5887 27.694 55.066 28.198C54.5527 28.702 53.9367 29.0753 53.218 29.318L52.434 28.1C53.386 27.7733 54.128 27.246 54.66 26.518C55.192 25.79 55.458 24.9967 55.458 24.138V23.802H52.868V22.57H59.56ZM71.3763 26.462V21.898H72.8043V33.532H71.3763V27.708H69.7663V26.462H71.3763ZM67.0083 23.844V22.08H68.4783V23.844H70.5363V25.09H68.4783V25.468C68.4783 26.4853 68.6883 27.4327 69.1083 28.31C69.5377 29.178 70.163 29.8313 70.9843 30.27L70.1303 31.418C69.5797 31.1193 69.1037 30.7133 68.7023 30.2C68.3103 29.6773 67.9977 29.08 67.7643 28.408C67.5403 29.1453 67.2277 29.7987 66.8263 30.368C66.425 30.9373 65.9443 31.3853 65.3843 31.712L64.5163 30.55C65.3377 30.0647 65.9583 29.36 66.3783 28.436C66.7983 27.512 67.0083 26.5227 67.0083 25.468V25.09H64.9363V23.844H67.0083ZM75.3523 21.66V34.12H73.8823V21.66H75.3523ZM85.0472 27.638V26.462H81.5752V22.22H90.0732V23.452H83.0872V25.23H90.1572V26.462H86.5732V27.638H91.4452V28.87H80.1892V27.638H85.0472ZM85.7892 29.598C87.1332 29.598 88.1832 29.7987 88.9392 30.2C89.7046 30.592 90.0872 31.1473 90.0872 31.866C90.0872 32.5847 89.7046 33.14 88.9392 33.532C88.1832 33.9333 87.1332 34.134 85.7892 34.134C84.4359 34.134 83.3766 33.9333 82.6112 33.532C81.8552 33.14 81.4772 32.5847 81.4772 31.866C81.4772 31.1473 81.8552 30.592 82.6112 30.2C83.3766 29.7987 84.4359 29.598 85.7892 29.598ZM85.7892 30.774C84.8932 30.774 84.2072 30.8673 83.7312 31.054C83.2646 31.2407 83.0312 31.5113 83.0312 31.866C83.0312 32.594 83.9506 32.958 85.7892 32.958C87.6186 32.958 88.5332 32.594 88.5332 31.866C88.5332 31.5113 88.2952 31.2407 87.8192 31.054C87.3526 30.8673 86.6759 30.774 85.7892 30.774ZM96.4155 22.514C97.0595 22.514 97.6382 22.6447 98.1515 22.906C98.6649 23.158 99.0662 23.5173 99.3555 23.984C99.6542 24.4413 99.8035 24.9593 99.8035 25.538C99.8035 26.1167 99.6542 26.6393 99.3555 27.106C99.0662 27.5633 98.6649 27.9227 98.1515 28.184C97.6382 28.436 97.0595 28.562 96.4155 28.562C95.7715 28.562 95.1882 28.436 94.6655 28.184C94.1522 27.9227 93.7462 27.5633 93.4475 27.106C93.1582 26.6487 93.0135 26.126 93.0135 25.538C93.0135 24.9593 93.1582 24.4413 93.4475 23.984C93.7462 23.5173 94.1522 23.158 94.6655 22.906C95.1882 22.6447 95.7715 22.514 96.4155 22.514ZM96.4155 23.844C95.8555 23.844 95.3982 23.998 95.0435 24.306C94.6889 24.614 94.5115 25.0247 94.5115 25.538C94.5115 26.0513 94.6889 26.4667 95.0435 26.784C95.4075 27.092 95.8649 27.246 96.4155 27.246C96.9662 27.246 97.4189 27.092 97.7735 26.784C98.1282 26.4667 98.3055 26.0513 98.3055 25.538C98.3055 25.0247 98.1282 24.614 97.7735 24.306C97.4189 23.998 96.9662 23.844 96.4155 23.844ZM102.688 21.646V34.148H101.162V21.646H102.688ZM92.4535 30.284C94.0215 30.284 95.4495 30.2607 96.7375 30.214C98.0255 30.158 99.2529 30.0413 100.42 29.864L100.532 30.984C99.3275 31.2173 98.0862 31.3713 96.8075 31.446C95.5289 31.5113 94.1382 31.544 92.6355 31.544L92.4535 30.284Z" fill="#888787"/>
<defs>
<clipPath id="clip0_1994_33962">
<rect x="12" y="16" width="24" height="24" rx="12" fill="white"/>
</clipPath>
<clipPath id="clip1_1994_33962">
<rect width="24" height="24" fill="white" transform="translate(12 16)"/>
</clipPath>
</defs>
</svg>
