<svg width="360" height="48" viewBox="0 0 360 48" fill="none" xmlns="http://www.w3.org/2000/svg">
<rect x="0.5" y="0.5" width="359" height="47" rx="7.5" fill="white"/>
<rect x="0.5" y="0.5" width="359" height="47" rx="7.5" stroke="#CECDCD"/>
<path d="M137.568 19.9785C137.568 21.6484 138.726 23.2451 140.732 23.9189L140.029 25.0029C138.542 24.4902 137.451 23.4648 136.88 22.1758C136.309 23.5967 135.173 24.71 133.628 25.252L132.881 24.168C134.932 23.4648 136.162 21.7803 136.177 19.9639V19.6123H133.291V18.4844H140.396V19.6123H137.568V19.9785ZM143.296 17.6201V20.9893H145.2V22.1611H143.296V25.5303H141.904V17.6201H143.296ZM143.296 26.1748V30.7451H141.904V27.3027H134.624V26.1748H143.296ZM156.172 17.6201V22.8496H158.208V24.0068H156.172V30.7305H154.78V17.6201H156.172ZM152.744 18.9971C152.729 22.791 151.06 26.1748 146.738 28.3135L145.962 27.2295C149.25 25.5889 151.038 23.2158 151.323 20.1543H146.621V18.9971H152.744ZM174.585 28.0059V29.1777H162.573V28.0059H167.861V25.7061H164.038V21.5312H171.743V19.6855H164.009V18.543H173.12V22.6445H165.415V24.5635H173.428V25.7061H169.238V28.0059H174.585ZM185.938 18.9531V20.3594C185.938 22.0586 185.938 23.9043 185.454 26.7021L184.033 26.5703C184.561 23.9482 184.561 22.0146 184.561 20.3594V20.0957H176.826V18.9531H185.938ZM187.505 27.7275V28.8848H175.537V27.7275H187.505ZM199.385 17.6348V27.1709H197.993V17.6348H199.385ZM199.78 29.3389V30.4668H190.801V26.2041H192.207V29.3389H199.78ZM192.266 18.5137C194.243 18.5137 195.752 19.8613 195.752 21.7656C195.752 23.6992 194.243 25.0322 192.266 25.0322C190.288 25.0322 188.765 23.6992 188.765 21.7656C188.765 19.8613 190.288 18.5137 192.266 18.5137ZM192.266 19.7295C191.035 19.7295 190.127 20.5645 190.127 21.7656C190.127 22.9961 191.035 23.8164 192.266 23.8164C193.467 23.8164 194.39 22.9961 194.39 21.7656C194.39 20.5645 193.467 19.7295 192.266 19.7295ZM211.689 17.6201V22.9375H213.799V24.0947H211.689V30.7451H210.312V17.6201H211.689ZM209.17 19.6709V20.8135H201.392V19.6709H204.629V17.7959H206.021V19.6709H209.17ZM205.332 21.7803C207.207 21.7803 208.584 23.04 208.599 24.8271C208.584 26.6289 207.207 27.874 205.332 27.8887C203.442 27.874 202.065 26.6289 202.065 24.8271C202.065 23.04 203.442 21.7803 205.332 21.7803ZM205.332 22.9229C204.219 22.9229 203.384 23.6992 203.398 24.8271C203.384 25.9697 204.219 26.7314 205.332 26.7168C206.445 26.7314 207.266 25.9697 207.266 24.8271C207.266 23.6992 206.445 22.9229 205.332 22.9229ZM225.342 17.6201V30.7451H223.936V17.6201H225.342ZM221.431 19.0264C221.431 22.8643 219.79 26.2041 215.293 28.3574L214.561 27.2295C218.054 25.5669 219.753 23.2012 220.024 20.1396H215.19V19.0264H221.431Z" fill="#616060"/>
</svg>
